<?xml version="1.0" encoding="UTF-8" standalone="no"?>
<!DOCTYPE svg PUBLIC "-//W3C//DTD SVG 1.1//EN" "http://www.w3.org/Graphics/SVG/1.1/DTD/svg11.dtd">
<svg width="100%" height="100%" viewBox="0 0 1310 1405" version="1.1" xmlns="http://www.w3.org/2000/svg" xmlns:xlink="http://www.w3.org/1999/xlink" xml:space="preserve" xmlns:serif="http://www.serif.com/" style="fill-rule:evenodd;clip-rule:evenodd;stroke-miterlimit:10;">
    <g transform="matrix(1,0,0,1,-2016.66,-798.402)">
        <g id="Artboard3" transform="matrix(1,0,0,1,7692.44,-0.520688)">
            <rect x="-7692.44" y="137.521" width="6623" height="2692.99" style="fill:none;"/>
            <g transform="matrix(5.90938,0,0,5.90938,-12293.2,-4277.68)">
                <g transform="matrix(0.182949,0,0,0.169222,742.415,723.967)">
                    <path d="M2558.39,1244.35L2446.73,1694.34L2349.91,1646.97L2349.91,1244.35L2558.39,1244.35Z" style="fill:rgb(39,53,121);"/>
                </g>
                <g transform="matrix(0.448742,0,0,0.453708,1175.28,983.84)">
                    <path d="M0,19.983C6.418,19.983 12.401,20.04 18.383,19.967C24.377,19.894 28.461,16.322 28.553,11.233C28.643,6.211 24.566,2.378 18.606,2.227C12.477,2.071 6.341,2.192 -0.14,2.192L-0.14,-26.023C6.471,-26.023 12.925,-25.872 19.369,-26.071C24.432,-26.227 28.344,-29.805 28.45,-34.34C28.554,-38.783 26.463,-42.06 22.012,-43.291C20.281,-43.769 18.395,-43.806 16.577,-43.828C11.114,-43.893 5.649,-43.851 -0.155,-43.851L-0.155,-72.032C6.526,-72.032 12.983,-71.861 19.426,-72.09C24.087,-72.255 27.314,-74.84 28.278,-79.473C29.122,-83.528 27.311,-86.851 23.712,-88.582C21.572,-89.611 18.892,-89.764 16.44,-89.843C10.993,-90.018 5.538,-89.897 -0.198,-89.897L-0.198,-160.19L110.309,-160.19C110.398,-158.557 110.559,-156.957 110.56,-155.356C110.576,-128.364 110.517,-101.372 110.644,-74.381C110.66,-71.051 109.706,-69.05 106.895,-67.082C37.422,-18.436 37.255,80.562 106.543,129.291C109.135,131.114 109.707,132.695 108.897,135.813C102.078,162.061 76.942,180.173 50.585,177.589C22.855,174.871 0.455,152.746 -0.2,125.413C-1.022,91.111 -0.437,56.775 -0.441,22.453C-0.441,21.821 -0.222,21.189 0,19.983" style="fill:white;fill-rule:nonzero;stroke:rgb(1,41,128);stroke-width:12.5px;"/>
                </g>
                <g transform="matrix(0.398348,0,0,0.402756,1253.21,1030.11)">
                    <path d="M-0.019,16.217C-54.105,15.822 -96.194,-27.033 -95.849,-81.358C-95.518,-133.577 -51.609,-176.245 1.293,-175.754C54.47,-175.261 96.469,-131.701 96.036,-77.488C95.623,-25.809 52.152,16.599 -0.019,16.217" style="fill:white;fill-rule:nonzero;stroke:rgb(1,41,128);stroke-width:13.05px;"/>
                </g>
                <g transform="matrix(0.448742,0,0,0.453708,1200.09,891.344)">
                    <path d="M0,34.053C-16.331,34.053 -32.663,34.096 -48.994,34.038C-60.01,33.999 -67.393,27.3 -67.505,17.416C-67.62,7.224 -60.165,0.002 -49.165,-0.02C-16.17,-0.084 16.826,-0.085 49.822,-0.015C60.235,0.007 67.75,7.107 67.926,16.73C68.106,26.593 60.641,33.942 49.993,34.018C33.33,34.138 16.664,34.05 0,34.053" style="fill:white;fill-rule:nonzero;stroke:rgb(1,41,128);stroke-width:12.5px;"/>
                </g>
                <g transform="matrix(1.91732,0,0,1.91732,-5862.76,-1596.06)">
                    <path d="M3711.43,1338.39C3719.47,1338.39 3725.99,1344.91 3725.99,1352.95C3725.99,1360.98 3719.47,1367.51 3711.43,1367.51C3703.39,1367.51 3696.87,1360.98 3696.87,1352.95C3696.87,1344.91 3703.39,1338.39 3711.43,1338.39ZM3711.43,1349.35C3709.44,1349.35 3707.83,1350.96 3707.83,1352.95C3707.83,1354.93 3709.44,1356.55 3711.43,1356.55C3713.41,1356.55 3715.03,1354.93 3715.03,1352.95C3715.03,1350.96 3713.41,1349.35 3711.43,1349.35Z" style="fill:white;"/>
                    <circle cx="3711.43" cy="1352.95" r="14.561" style="fill:rgb(219,26,91);"/>
                </g>
            </g>
            <g transform="matrix(9.3035,0,0,8.10921,-6262.94,-3532.26)">
                <rect x="63.112" y="534.107" width="140.78" height="173.211" style="fill:none;"/>
            </g>
        </g>
    </g>
</svg>
