<?xml version="1.0" encoding="UTF-8" standalone="no"?><!DOCTYPE svg PUBLIC "-//W3C//DTD SVG 1.1//EN" "http://www.w3.org/Graphics/SVG/1.1/DTD/svg11.dtd"><svg width="100%" height="100%" viewBox="0 0 27 28" version="1.1" xmlns="http://www.w3.org/2000/svg" xmlns:xlink="http://www.w3.org/1999/xlink" xml:space="preserve" xmlns:serif="http://www.serif.com/" style="fill-rule:evenodd;clip-rule:evenodd;stroke-linecap:round;stroke-linejoin:round;stroke-miterlimit:1.5;"><g><g><path d="M5.479,4.227l-1.319,0c-1.479,0 -2.681,1.202 -2.681,2.682l-0,16.423c-0,1.48 1.202,2.681 2.681,2.681l17.991,0c1.48,0 2.681,-1.201 2.681,-2.681l0,-16.423c0,-1.48 -1.201,-2.682 -2.681,-2.682l-1.248,0l0,-1.338l1.248,0c2.218,0 4.019,1.801 4.019,4.02l-0,16.423c-0,2.218 -1.801,4.019 -4.019,4.019l-17.991,0c-2.218,0 -4.019,-1.801 -4.019,-4.019l0,-16.423c0,-2.219 1.801,-4.02 4.019,-4.02l1.319,0l0,1.338Zm3.877,-1.338l7.67,0l0,1.338l-7.67,0l0,-1.338Z" style="fill:#fff;stroke:#fff;stroke-width:0.28px;"/><g><path d="M12.124,13.114l0,1.337c0,0.37 -0.3,0.669 -0.669,0.669l-1.398,0c-0.369,0 -0.669,-0.299 -0.669,-0.669l0,-1.337c0,-0.369 0.3,-0.669 0.669,-0.669l1.398,-0c0.369,-0 0.669,0.3 0.669,0.669Z" style="fill:#fff;"/><path d="M12.124,17.557l0,1.338c0,0.369 -0.3,0.669 -0.669,0.669l-1.398,0c-0.369,0 -0.669,-0.3 -0.669,-0.669l0,-1.338c0,-0.369 0.3,-0.668 0.669,-0.668l1.398,-0c0.369,-0 0.669,0.299 0.669,0.668Z" style="fill:#fff;stroke:#db1a5b;stroke-width:0.41px;"/><path d="M12.124,21.839l0,1.338c0,0.369 -0.3,0.669 -0.669,0.669l-1.398,-0c-0.369,-0 -0.669,-0.3 -0.669,-0.669l0,-1.338c0,-0.369 0.3,-0.669 0.669,-0.669l1.398,0c0.369,0 0.669,0.3 0.669,0.669Z" style="fill:#fff;"/><path d="M7.302,17.557l0,1.338c0,0.369 -0.3,0.669 -0.669,0.669l-1.398,0c-0.369,0 -0.668,-0.3 -0.668,-0.669l-0,-1.338c-0,-0.369 0.299,-0.668 0.668,-0.668l1.398,-0c0.369,-0 0.669,0.299 0.669,0.668Z" style="fill:#fff;"/><path d="M7.302,21.839l0,1.338c0,0.369 -0.3,0.669 -0.669,0.669l-1.398,-0c-0.369,-0 -0.668,-0.3 -0.668,-0.669l-0,-1.338c-0,-0.369 0.299,-0.669 0.668,-0.669l1.398,0c0.369,0 0.669,0.3 0.669,0.669Z" style="fill:#fff;"/><path d="M16.946,13.114l-0,1.337c-0,0.37 -0.3,0.669 -0.669,0.669l-1.398,0c-0.369,0 -0.669,-0.299 -0.669,-0.669l0,-1.337c0,-0.369 0.3,-0.669 0.669,-0.669l1.398,-0c0.369,-0 0.669,0.3 0.669,0.669Z" style="fill:#fff;"/><path d="M16.946,17.557l-0,1.338c-0,0.369 -0.3,0.669 -0.669,0.669l-1.398,0c-0.369,0 -0.669,-0.3 -0.669,-0.669l0,-1.338c0,-0.369 0.3,-0.668 0.669,-0.668l1.398,-0c0.369,-0 0.669,0.299 0.669,0.668Z" style="fill:#fff;stroke:#db1a5b;stroke-width:0.41px;"/><path d="M16.946,21.839l-0,1.338c-0,0.369 -0.3,0.669 -0.669,0.669l-1.398,-0c-0.369,-0 -0.669,-0.3 -0.669,-0.669l0,-1.338c0,-0.369 0.3,-0.669 0.669,-0.669l1.398,0c0.369,0 0.669,0.3 0.669,0.669Z" style="fill:#fff;"/><path d="M21.768,13.114l-0,1.337c-0,0.37 -0.3,0.669 -0.669,0.669l-1.398,0c-0.369,0 -0.669,-0.299 -0.669,-0.669l0,-1.337c0,-0.369 0.3,-0.669 0.669,-0.669l1.398,-0c0.369,-0 0.669,0.3 0.669,0.669Z" style="fill:#fff;"/><path d="M21.768,17.557l-0,1.338c-0,0.369 -0.3,0.669 -0.669,0.669l-1.398,0c-0.369,0 -0.669,-0.3 -0.669,-0.669l0,-1.338c0,-0.369 0.3,-0.668 0.669,-0.668l1.398,-0c0.369,-0 0.669,0.299 0.669,0.668Z" style="fill:#fff;"/></g><rect x="0.881" y="9.103" width="24.135" height="1.525" style="fill:#fff;"/><path d="M9.388,2.416l0,2.4c0,1.086 -0.881,1.968 -1.968,1.968c-1.086,-0 -1.968,-0.882 -1.968,-1.968l0,-2.4c0,-1.086 0.882,-1.968 1.968,-1.968c1.087,-0 1.968,0.882 1.968,1.968Z" style="fill:none;stroke:#fff;stroke-width:0.9px;"/><path d="M20.903,2.416l0,2.4c0,1.086 -0.882,1.968 -1.968,1.968c-1.086,-0 -1.968,-0.882 -1.968,-1.968l0,-2.4c0,-1.086 0.882,-1.968 1.968,-1.968c1.086,-0 1.968,0.882 1.968,1.968Z" style="fill:none;stroke:#fff;stroke-width:0.9px;"/></g></g></svg>