<?xml version="1.0" encoding="UTF-8" standalone="no"?>
<!DOCTYPE svg PUBLIC "-//W3C//DTD SVG 1.1//EN" "http://www.w3.org/Graphics/SVG/1.1/DTD/svg11.dtd">
<svg width="100%" height="100%" viewBox="0 0 167 167" version="1.1" xmlns="http://www.w3.org/2000/svg" xmlns:xlink="http://www.w3.org/1999/xlink" xml:space="preserve" xmlns:serif="http://www.serif.com/" style="fill-rule:evenodd;clip-rule:evenodd;stroke-linejoin:round;stroke-miterlimit:2;">
    <g transform="matrix(1,0,0,1,-14071.6,-7029.57)">
        <g transform="matrix(1,0,0,1,-161.99,3.03282)">
            <g transform="matrix(0.461135,0,0,0.490405,1200.04,33.7588)">
                <path d="M28298.7,14481.8C28292.3,14465.6 28288.8,14447.9 28288.8,14429.4C28288.8,14345.9 28360.5,14278.4 28449.4,14278.4C28538.2,14278.4 28609.9,14345.9 28609.9,14429.4C28609.9,14513 28538.2,14580.4 28449.4,14580.4C28432.5,14580.4 28416.4,14578.1 28401.3,14573.7L28364.8,14579.6C28345.6,14582.7 28326,14577 28312,14564.3L28302.9,14553.8C28300.4,14550 28298.3,14546 28296.7,14541.8C28295.2,14537.6 28294.1,14533.2 28293.6,14528.8L28293.9,14515.3L28298.7,14481.8Z" style="fill:rgb(27,215,65);"/>
            </g>
            <g transform="matrix(0.836295,0,0,0.889377,-9475.32,-5723.49)">
                <g id="facebook">
                </g>
                <g transform="matrix(0.917992,0,0,0.863202,26806,14145.7)">
                    <path d="M1721.93,412.865L1737.32,410.116L1746.67,408.466C1759.87,415.615 1774.17,419.464 1790.11,419.464C1845.55,419.464 1889.52,369.521 1879.39,312.252C1872.82,275.108 1843.74,246.028 1806.59,239.458C1749.32,229.325 1699.38,273.291 1699.38,328.73C1699.38,346.877 1704.88,363.374 1713.68,377.672L1712.58,385.92L1710.38,402.417L1708.73,415.065L1721.93,412.865ZM1790.11,220.4C1850.05,220.4 1898.44,268.791 1898.44,328.73C1898.44,388.67 1850.05,437.061 1790.11,437.061C1773.62,437.061 1758.22,433.761 1744.47,427.163L1686.73,437.061L1694.43,379.871L1693.88,378.771C1686.18,363.924 1681.78,346.877 1681.78,328.73C1681.78,268.791 1730.18,220.4 1790.11,220.4ZM1751.62,279.24C1757.67,275.39 1761.52,278.14 1763.72,284.188L1769.22,298.486C1769.22,298.486 1773.07,306.185 1763.17,313.883C1761.52,314.983 1761.52,314.983 1762.07,317.732C1764.27,324.331 1773.07,344.128 1801.11,359.525C1803.86,361.175 1804.41,361.175 1807.16,358.975C1809.36,356.775 1812.11,354.026 1814.31,351.826C1819.26,347.427 1822.01,345.777 1826.41,349.077C1829.71,351.276 1833.01,354.026 1836.31,356.225C1839.61,358.975 1845.1,362.275 1839.61,368.873L1834.66,374.922C1827.51,383.72 1821.46,384.27 1812.11,382.071C1776.37,372.723 1749.97,347.427 1738.42,311.683C1734.57,297.936 1740.07,286.388 1751.62,279.24Z" style="fill:white;"/>
                </g>
            </g>
        </g>
    </g>
</svg>
