<?xml version="1.0" encoding="UTF-8" standalone="no"?>
<!DOCTYPE svg PUBLIC "-//W3C//DTD SVG 1.1//EN" "http://www.w3.org/Graphics/SVG/1.1/DTD/svg11.dtd">
<svg width="100%" height="100%" viewBox="0 0 10 9" version="1.1" xmlns="http://www.w3.org/2000/svg" xmlns:xlink="http://www.w3.org/1999/xlink" xml:space="preserve" xmlns:serif="http://www.serif.com/" style="fill-rule:evenodd;clip-rule:evenodd;stroke-linejoin:round;stroke-miterlimit:2;">
    <path d="M8.064,0l-6.974,0c-0.602,0 -1.09,0.454 -1.09,1.014l-0,6.486c-0,0.56 0.488,1.014 1.09,1.014l6.974,-0c0.601,-0 1.089,-0.454 1.089,-1.014l0,-6.486c0,-0.56 -0.488,-1.014 -1.089,-1.014Zm-0.872,3.041l-0.436,-0c-0.466,-0 -0.654,0.101 -0.654,0.405l0,0.608l1.09,0l-0.218,1.014l-0.872,-0l0,3.04l-1.089,0l-0,-3.04l-0.872,-0l-0,-1.014l0.872,0l-0,-0.608c-0,-0.811 0.436,-1.419 1.307,-1.419c0.632,0 0.872,0.203 0.872,0.203l0,0.811Z" style="fill:#fff;fill-rule:nonzero;"/>
</svg>
