<?xml version="1.0" encoding="UTF-8" standalone="no"?><!DOCTYPE svg PUBLIC "-//W3C//DTD SVG 1.1//EN" "http://www.w3.org/Graphics/SVG/1.1/DTD/svg11.dtd"><svg width="100%" height="100%" viewBox="0 0 25 19" version="1.1" xmlns="http://www.w3.org/2000/svg" xmlns:xlink="http://www.w3.org/1999/xlink" xml:space="preserve" xmlns:serif="http://www.serif.com/" style="fill-rule:evenodd;clip-rule:evenodd;stroke-linejoin:round;stroke-miterlimit:2;"><g><path d="M24.417,0.602l-0,1.203c-0,0.332 -0.27,0.602 -0.602,0.602l-23.213,0c-0.332,0 -0.602,-0.27 -0.602,-0.602l-0,-1.203c-0,-0.332 0.27,-0.602 0.602,-0.602l23.213,-0c0.332,-0 0.602,0.27 0.602,0.602Z" style="fill:#012880;"/><path d="M24.417,0.602l-0,1.203c-0,0.332 -0.27,0.602 -0.602,0.602l-23.213,0c-0.332,0 -0.602,-0.27 -0.602,-0.602l-0,-1.203c-0,-0.332 0.27,-0.602 0.602,-0.602l23.213,-0c0.332,-0 0.602,0.27 0.602,0.602Z" style="fill:#012580;"/><path d="M24.417,8.83l-0,1.203c-0,0.332 -0.27,0.602 -0.602,0.602l-23.213,-0c-0.332,-0 -0.602,-0.27 -0.602,-0.602l-0,-1.203c-0,-0.333 0.27,-0.602 0.602,-0.602l23.213,-0c0.332,-0 0.602,0.269 0.602,0.602Z" style="fill:#012880;"/><path d="M24.417,8.83l-0,1.203c-0,0.332 -0.27,0.602 -0.602,0.602l-23.213,-0c-0.332,-0 -0.602,-0.27 -0.602,-0.602l-0,-1.203c-0,-0.333 0.27,-0.602 0.602,-0.602l23.213,-0c0.332,-0 0.602,0.269 0.602,0.602Z" style="fill:#012580;"/><path d="M24.417,17.057l-0,1.204c-0,0.332 -0.27,0.602 -0.602,0.602l-23.213,-0c-0.332,-0 -0.602,-0.27 -0.602,-0.602l-0,-1.204c-0,-0.332 0.27,-0.601 0.602,-0.601l23.213,-0c0.332,-0 0.602,0.269 0.602,0.601Z" style="fill:#012880;"/><path d="M24.417,17.057l-0,1.204c-0,0.332 -0.27,0.602 -0.602,0.602l-23.213,-0c-0.332,-0 -0.602,-0.27 -0.602,-0.602l-0,-1.204c-0,-0.332 0.27,-0.601 0.602,-0.601l23.213,-0c0.332,-0 0.602,0.269 0.602,0.601Z" style="fill:#012580;"/></g></svg>