<?xml version="1.0" encoding="UTF-8" standalone="no"?>
<!DOCTYPE svg PUBLIC "-//W3C//DTD SVG 1.1//EN" "http://www.w3.org/Graphics/SVG/1.1/DTD/svg11.dtd">
<svg width="100%" height="100%" viewBox="0 0 9 9" version="1.1" xmlns="http://www.w3.org/2000/svg" xmlns:xlink="http://www.w3.org/1999/xlink" xml:space="preserve" xmlns:serif="http://www.serif.com/" style="fill-rule:evenodd;clip-rule:evenodd;stroke-linejoin:round;stroke-miterlimit:2;">
    <path d="M2.468,0c-1.361,0 -2.468,1.061 -2.468,2.365l-0,3.784c-0,1.304 1.107,2.365 2.468,2.365l3.948,-0c1.36,-0 2.467,-1.061 2.467,-2.365l0,-3.784c0,-1.304 -1.107,-2.365 -2.467,-2.365l-3.948,0Zm-0,0.946l3.948,-0c0.816,-0 1.48,0.637 1.48,1.419l0,3.784c0,0.782 -0.664,1.419 -1.48,1.419l-3.948,-0c-0.817,-0 -1.481,-0.637 -1.481,-1.419l0,-3.784c0,-0.782 0.664,-1.419 1.481,-1.419Zm4.441,0.473c-0.27,-0 -0.493,0.213 -0.493,0.473c-0,0.259 0.223,0.473 0.493,0.473c0.271,-0 0.494,-0.214 0.494,-0.473c-0,-0.26 -0.223,-0.473 -0.494,-0.473Zm-2.467,0.473c-1.361,-0 -2.468,1.061 -2.468,2.365c0,1.304 1.107,2.365 2.468,2.365c1.36,-0 2.467,-1.061 2.467,-2.365c0,-1.304 -1.107,-2.365 -2.467,-2.365Zm-0,0.946c0.816,-0 1.48,0.637 1.48,1.419c0,0.782 -0.664,1.419 -1.48,1.419c-0.817,-0 -1.481,-0.637 -1.481,-1.419c0,-0.782 0.664,-1.419 1.481,-1.419Z" style="fill:#fff;fill-rule:nonzero;"/>
</svg>
