<?xml version="1.0" encoding="UTF-8"?>
<svg xmlns="http://www.w3.org/2000/svg" viewBox="0 0 279.24 354.91">
  <defs>
    <style>
      .cls-1 {
        fill: #fff;
      }

      .cls-1, .cls-2 {
        fill-rule: evenodd;
      }

      .cls-2 {
        fill: #283578;
      }
    </style>
  </defs>
  <g id="BG">
    <path class="cls-2" d="m16.64,205.75C6.03,186.06,0,163.54,0,139.62,0,62.56,62.56,0,139.62,0s139.62,62.56,139.62,139.62c0,23.92-6.03,46.44-16.64,66.13h.25l-1.27,1.86c-4.09,7.32-8.83,14.24-14.13,20.68,0,0-42.84,62.69-74.51,109.04-7.52,11-19.98,17.58-33.31,17.58s-25.79-6.58-33.31-17.58c-31.67-46.35-74.52-109.04-74.52-109.04-5.3-6.43-10.03-13.35-14.13-20.68l-1.27-1.86h.25Z"/>
  </g>
  <g id="Dot">
    <path class="cls-1" d="m139.62,72.59c37,0,67.03,30.04,67.03,67.03s-30.04,67.03-67.03,67.03-67.03-30.04-67.03-67.03,30.04-67.03,67.03-67.03Z"/>
  </g>
</svg>