<?xml version="1.0" encoding="UTF-8" standalone="no"?>
<!DOCTYPE svg PUBLIC "-//W3C//DTD SVG 1.1//EN" "http://www.w3.org/Graphics/SVG/1.1/DTD/svg11.dtd">
<svg width="100%" height="100%" viewBox="0 0 16 12" version="1.1" xmlns="http://www.w3.org/2000/svg" xmlns:xlink="http://www.w3.org/1999/xlink" xml:space="preserve" xmlns:serif="http://www.serif.com/" style="fill-rule:evenodd;clip-rule:evenodd;stroke-linejoin:round;stroke-miterlimit:2;">
    <g id="Gmail">
        <path d="M13.711,3.232c-0.05,0.03 -0.085,0.05 -0.12,0.072c-1.915,1.218 -3.831,2.436 -5.744,3.657c-0.074,0.047 -0.122,0.045 -0.196,-0.001c-1.921,-1.226 -3.845,-2.449 -5.768,-3.673c-0.026,-0.016 -0.054,-0.03 -0.085,-0.047l-0,6.881l11.913,-0l-0,-6.889Zm-13.048,-2.821c0.317,0.202 0.63,0.401 0.943,0.6c2.016,1.282 4.033,2.563 6.047,3.848c0.076,0.047 0.124,0.044 0.196,-0.002c2.304,-1.468 4.609,-2.934 6.914,-4.4c0.022,-0.014 0.045,-0.027 0.074,-0.044c0.264,0.212 0.463,0.477 0.562,0.802c0.057,0.188 0.097,0.391 0.097,0.588c0.007,2.575 0.005,5.151 0.004,7.727c0,0.981 -0.782,1.775 -1.764,1.794c-0.019,0.001 -0.039,0.001 -0.058,0.001c-3.953,-0 -7.906,0 -11.859,-0.001c-0.878,0 -1.602,-0.58 -1.782,-1.431c-0.026,-0.125 -0.035,-0.256 -0.035,-0.385c-0.002,-2.563 -0,-5.126 -0.002,-7.689c-0,-0.531 0.196,-0.973 0.579,-1.336c0.026,-0.024 0.053,-0.046 0.084,-0.072" style="fill:#fff;fill-rule:nonzero;"/>
        <path d="M14.213,0.099c-0.149,0.095 -0.297,0.191 -0.446,0.286c-0.398,0.253 -0.795,0.507 -1.195,0.758c-0.043,0.027 -0.1,0.046 -0.151,0.046c-3.115,0.002 -6.23,0.002 -9.345,0.001c-0.043,-0 -0.092,-0.011 -0.127,-0.033c-0.538,-0.34 -1.074,-0.682 -1.61,-1.023c-0.019,-0.012 -0.034,-0.027 -0.075,-0.06c0.163,-0.026 0.302,-0.051 0.441,-0.07c0.054,-0.007 0.11,-0.003 0.164,-0.003c3.92,0 7.84,-0 11.759,0.003c0.195,-0 0.389,0.034 0.584,0.053c0,0.014 0.001,0.028 0.001,0.042" style="fill:#fff;fill-rule:nonzero;"/>
    </g>
</svg>
