<?xml version="1.0" encoding="UTF-8" standalone="no"?>
<!DOCTYPE svg PUBLIC "-//W3C//DTD SVG 1.1//EN" "http://www.w3.org/Graphics/SVG/1.1/DTD/svg11.dtd">
<svg width="100%" height="100%" viewBox="0 0 1310 1464" version="1.1" xmlns="http://www.w3.org/2000/svg" xmlns:xlink="http://www.w3.org/1999/xlink" xml:space="preserve" xmlns:serif="http://www.serif.com/" style="fill-rule:evenodd;clip-rule:evenodd;stroke-miterlimit:10;">
    <g transform="matrix(1,0,0,1,-363.65,-739.992)">
        <g id="Artboard3" transform="matrix(1,0,0,1,7692.44,-0.520688)">
            <rect x="-7692.44" y="137.521" width="6623" height="2692.99" style="fill:none;"/>
            <g transform="matrix(3.02565,0,0,3.02565,-76702.5,6329.63)">
                <g transform="matrix(2.13512,0,0,2.13512,22473.9,-2753.78)">
                    <path d="M316.976,477.22L289.286,538.12C287.464,543.545 303.524,548.793 304.465,546.133L313.818,526.52C301.446,512.011 313.014,495.538 326.788,496.522L332.556,484.742C333.272,483.053 332.157,481.703 329.922,481.034L320.064,476.756C318.257,476.146 317.714,476.482 316.976,477.22Z" style="fill:white;"/>
                    <path d="M313.327,473.571L314.988,472.245L317.009,471.444L319.138,471.303C319.824,471.356 320.663,471.512 321.714,471.867L321.919,471.936C321.919,471.936 331.731,476.194 331.73,476.194C333.149,476.66 334.299,477.315 335.173,478.043L336.316,479.205L337.259,480.721L337.766,482.219L337.931,483.812L337.755,485.357L337.307,486.756L337.252,486.885L329.892,501.917L326.42,501.669C319.702,501.189 313.738,506.67 313.72,513.469C313.712,516.589 314.976,519.925 317.744,523.172L319.916,525.719L309.122,548.354L309.329,547.854L308.055,549.935L307.088,550.763L305.712,551.484C304.409,551.982 302.13,552.196 299.429,551.663C294.951,550.78 288.949,547.958 286.257,544.773C285.733,544.152 285.302,543.512 284.964,542.867L284.106,540.382L284.001,538.441L284.395,536.477L284.479,536.226L312.666,474.233L313.327,473.571ZM316.976,477.22L289.286,538.12C287.464,543.545 303.524,548.793 304.465,546.133L313.818,526.52C301.446,512.011 313.014,495.538 326.788,496.522L332.556,484.742C333.272,483.053 332.157,481.703 329.922,481.034L320.064,476.756C318.257,476.146 317.714,476.482 316.976,477.22Z" style="fill:rgb(1,41,128);"/>
                </g>
                <g transform="matrix(-1.9242,-0.925314,-0.925314,1.9242,24314.2,-2499.73)">
                    <path d="M322.937,555.585L333.094,555.585L333.283,546.395L323.365,546.419L322.937,555.585Z" style="fill:white;stroke:rgb(1,41,128);stroke-width:3.87px;"/>
                </g>
                <g transform="matrix(1.93081,0.911428,0.911428,-1.93081,22030.6,-980.742)">
                    <path d="M324.008,555.281C322.588,555.281 321.435,556.434 321.435,557.854C321.435,559.274 322.588,560.427 324.008,560.427L339.295,560.427C340.715,560.427 341.868,559.274 341.868,557.854C341.868,556.434 340.715,555.281 339.295,555.281L324.008,555.281Z" style="fill:white;stroke:rgb(1,41,128);stroke-width:3.87px;"/>
                </g>
                <g transform="matrix(-0.840272,1.96283,1.96283,0.840272,22418.3,-2554.41)">
                    <rect x="289.854" y="462.964" width="5.839" height="20.282" style="fill:white;"/>
                    <path d="M284.695,488.406L300.853,488.406L300.853,457.804L284.695,457.804L284.695,488.406ZM289.854,462.964L295.694,462.964L295.694,483.246L289.854,483.246L289.854,462.964Z" style="fill:rgb(1,41,128);"/>
                </g>
                <g transform="matrix(2.13512,0,0,2.13512,22473.9,-2482.74)">
                    <path d="M303.358,442.409L273.629,428.448L270.351,436.487L299.688,449.694L300.711,448.108L302.53,449.302L299.128,456.661L296.12,455.349L296.601,453.974L275.93,444.437C273.594,443.926 271.258,447.99 273.583,449.414L293.078,458.546C294.948,458.857 295.428,458.311 295.781,457.687L298.156,459.079C296.043,463.433 297.32,465.414 301.289,467.538C305.041,469.546 311.638,469.171 317.047,468.885C315.993,466.17 315.466,463.322 316.119,460.182L309.751,460.436L315.154,447.857L305.938,442.902L304.588,445.441L302.293,444.703L303.358,442.409Z" style="fill:white;"/>
                    <path d="M305.585,437.754C306.547,437.688 307.518,437.893 308.381,438.357L317.597,443.312C319.953,444.579 320.951,447.436 319.895,449.893L317.599,455.239C318.545,455.522 319.402,456.075 320.056,456.847C321.083,458.059 321.494,459.677 321.171,461.233C320.736,463.323 321.156,465.211 321.857,467.018C322.456,468.56 322.279,470.296 321.38,471.686C320.482,473.076 318.972,473.95 317.319,474.038C310.969,474.373 303.259,474.445 298.854,472.087C295.544,470.316 293.608,468.33 292.689,466.153C292.357,465.368 292.124,464.522 292.028,463.598C291.635,463.516 291.253,463.389 290.889,463.219L271.394,454.087C271.221,454.005 271.052,453.914 270.888,453.814L268.924,452.052L267.761,449.762L267.485,447.081L267.811,445.344L268.427,443.827L269.815,441.904L268.233,441.192C265.7,440.052 264.524,437.111 265.573,434.539L268.851,426.5C269.385,425.19 270.434,424.156 271.752,423.642C273.07,423.127 274.542,423.176 275.822,423.778L305.551,437.739C305.562,437.744 305.573,437.749 305.585,437.754ZM303.358,442.409L273.629,428.448L270.351,436.487L299.688,449.694L300.711,448.108L302.53,449.302L299.128,456.661L296.12,455.349L296.601,453.974L275.93,444.437C273.594,443.926 271.258,447.99 273.583,449.414L293.078,458.546C294.948,458.857 295.428,458.311 295.781,457.687L298.156,459.079C296.043,463.433 297.32,465.414 301.289,467.538C305.041,469.546 311.638,469.171 317.047,468.885C315.993,466.17 315.466,463.322 316.119,460.182L309.751,460.436L315.154,447.857L305.938,442.902L304.588,445.441L302.293,444.703L303.358,442.409Z" style="fill:rgb(1,41,128);"/>
                </g>
                <g transform="matrix(2.13512,0,0,2.13512,22473.9,-2589.34)">
                    <path d="M330.851,453.644C338.42,449.851 342.499,443.892 343.01,435.725C365.537,462.133 362.609,493.315 337.65,512.195C336.497,509.356 334.915,506.597 330.452,503.874C337.359,497.993 345.068,489.987 341.538,471.538C340.311,464.166 335.499,458.534 330.851,453.644Z" style="fill:white;"/>
                    <path d="M328.539,449.031C334.31,446.139 337.471,441.63 337.86,435.403C337.992,433.304 339.383,431.495 341.378,430.83C343.372,430.165 345.571,430.777 346.936,432.376C359.212,446.768 364.411,462.512 363.282,477.179C362.139,492.029 354.535,505.893 340.763,516.31C339.483,517.278 337.827,517.596 336.28,517.17C334.734,516.744 333.473,515.623 332.869,514.137C332.055,512.132 330.916,510.202 327.765,508.279C326.352,507.417 325.438,505.93 325.308,504.28C325.178,502.63 325.847,501.018 327.107,499.945C332.965,494.958 339.464,488.154 336.47,472.508C336.462,472.467 336.455,472.426 336.448,472.385C335.399,466.08 331.087,461.381 327.111,457.199C325.985,456.014 325.487,454.366 325.768,452.755C326.05,451.145 327.078,449.763 328.539,449.031ZM330.851,453.644C335.499,458.534 340.311,464.166 341.538,471.538C345.068,489.987 337.359,497.993 330.452,503.874C334.915,506.597 336.497,509.356 337.65,512.195C362.609,493.315 365.537,462.133 343.01,435.725C342.499,443.892 338.42,449.851 330.851,453.644Z" style="fill:rgb(1,41,128);"/>
                </g>
                <g transform="matrix(2.13512,0,0,2.13512,22473.9,-2345.43)">
                    <path d="M318.604,407.266C325.424,411.062 331.873,412.208 336.726,401.943C344.568,409.813 349.127,419.558 349.424,431.738L273.96,431.738C272.736,427.051 272.761,422.501 274.952,418.081C280.73,418.778 292.286,420.168 297.612,420.168C302.94,420.168 310.714,418.535 313.892,415.355C317.073,412.176 318.093,408.903 318.604,407.266Z" style="fill:white;"/>
                    <path d="M321.113,402.757C323.649,404.169 325.98,405.544 328.186,404.6C329.683,403.96 330.837,402.328 332.061,399.738C332.779,398.219 334.192,397.144 335.848,396.858C337.504,396.572 339.195,397.111 340.381,398.301C349.149,407.1 354.25,417.994 354.582,431.612C354.616,433.002 354.088,434.347 353.117,435.342C352.146,436.337 350.814,436.898 349.424,436.898L273.96,436.898C271.612,436.898 269.561,435.313 268.968,433.042C267.421,427.118 267.56,421.376 270.329,415.789C271.3,413.831 273.4,412.696 275.57,412.958C281.191,413.636 292.431,415.008 297.612,415.008C300.317,415.008 303.768,414.512 306.677,413.533C308.12,413.047 309.441,412.509 310.242,411.708L310.245,411.705C312.587,409.364 313.302,406.934 313.679,405.728C314.141,404.246 315.247,403.051 316.689,402.475C318.131,401.898 319.756,402.002 321.113,402.757ZM318.604,407.266C318.093,408.903 317.073,412.176 313.892,415.355C310.714,418.535 302.94,420.168 297.612,420.168C292.286,420.168 280.73,418.778 274.952,418.081C272.761,422.501 272.736,427.051 273.96,431.738L349.424,431.738C349.127,419.558 344.568,409.813 336.726,401.943C331.873,412.208 325.424,411.062 318.604,407.266Z" style="fill:rgb(1,41,128);"/>
                </g>
                <g transform="matrix(2.13512,0,0,2.13512,22473.9,-2592.01)">
                    <path d="M323.045,455.291L323.126,455.187L323.206,455.291C340.073,477.365 336.453,493.986 323.554,493.986L322.7,493.986C309.801,493.986 306.178,477.365 323.045,455.291ZM323.045,455.295L323.045,455.291L323.045,455.295ZM323.206,455.295L323.206,455.291L323.206,455.295Z" style="fill:rgb(218,27,91);"/>
                    <path d="M320.191,453.068L320.272,452.964C320.96,452.081 322.018,451.566 323.137,451.569C324.256,451.573 325.311,452.094 325.993,452.981L326.073,453.085C326.076,453.088 326.078,453.091 326.081,453.095C337.21,467.66 339.737,480.23 337.307,487.825C335.336,493.986 330.459,497.604 323.554,497.604L322.7,497.604C317.509,497.604 313.487,495.494 310.942,491.885C308.606,488.572 307.502,483.82 308.341,477.937C309.313,471.115 312.944,462.552 320.17,453.095C320.177,453.086 320.184,453.077 320.191,453.068ZM323.206,455.291L323.126,455.187L323.045,455.291C322.325,456.233 321.643,457.164 320.997,458.085C320.732,457.899 320.479,457.671 320.263,457.393L320.259,457.393L320.335,457.492C320.464,457.662 320.593,457.831 320.72,458C320.794,458.057 320.87,458.11 320.945,458.159C306.513,478.789 310.366,493.986 322.7,493.986L323.554,493.986C336.453,493.986 340.073,477.365 323.206,455.291Z" style="fill:rgb(1,41,128);"/>
                </g>
                <g transform="matrix(2.13512,0,0,2.13512,22473.9,-2620.88)">
                    <path d="M320.83,474.614C317.716,478.576 313.73,488.015 314.879,488.029C318.823,488.079 318.093,485.125 321.293,478.71C322.113,475.48 321.673,474.66 320.83,474.614Z" style="fill:white;"/>
                </g>
                <g transform="matrix(-2.08453,0.462038,0.462038,2.08453,23609.5,-2871.76)">
                    <ellipse cx="325.087" cy="510.978" rx="14.642" ry="14.643" style="fill:rgb(0,181,101);"/>
                    <path d="M325.087,492.717C315.009,492.717 306.827,500.9 306.827,510.978C306.827,521.056 315.009,529.239 325.087,529.239C335.166,529.239 343.348,521.056 343.348,510.978C343.348,500.9 335.166,492.717 325.087,492.717ZM325.087,496.335C333.169,496.335 339.73,502.896 339.73,510.978C339.73,519.06 333.169,525.621 325.087,525.621C317.006,525.621 310.445,519.06 310.445,510.978C310.445,502.896 317.006,496.335 325.087,496.335Z" style="fill:rgb(1,41,128);"/>
                </g>
                <g transform="matrix(-2.08452,0.462085,0.462085,2.08452,23650.9,-2549.74)">
                    <ellipse cx="326.526" cy="434.503" rx="8.724" ry="8.724" style="fill:white;"/>
                    <path d="M326.526,421.446C319.32,421.446 313.469,427.296 313.469,434.503C313.469,441.709 319.32,447.56 326.526,447.56C333.732,447.56 339.583,441.709 339.583,434.503C339.583,427.296 333.732,421.446 326.526,421.446ZM326.526,425.779C331.341,425.779 335.25,429.688 335.25,434.503C335.25,439.318 331.341,443.227 326.526,443.227C321.711,443.227 317.802,439.318 317.802,434.503C317.802,429.688 321.711,425.779 326.526,425.779Z" style="fill:rgb(1,41,128);"/>
                </g>
            </g>
            <g transform="matrix(9.3035,0,0,8.10921,-7915.95,-3532.26)">
                <rect x="63.112" y="534.107" width="140.78" height="173.211" style="fill:none;"/>
            </g>
        </g>
    </g>
</svg>
