<?xml version="1.0" encoding="UTF-8" standalone="no"?>
<!DOCTYPE svg PUBLIC "-//W3C//DTD SVG 1.1//EN" "http://www.w3.org/Graphics/SVG/1.1/DTD/svg11.dtd">
<svg width="100%" height="100%" viewBox="0 0 1310 1405" version="1.1" xmlns="http://www.w3.org/2000/svg" xmlns:xlink="http://www.w3.org/1999/xlink" xml:space="preserve" xmlns:serif="http://www.serif.com/" style="fill-rule:evenodd;clip-rule:evenodd;stroke-linejoin:round;stroke-miterlimit:2;">
    <g transform="matrix(1,0,0,1,-4915.25,-798.402)">
        <g id="Artboard3" transform="matrix(1,0,0,1,7692.44,-0.520688)">
            <rect x="-7692.44" y="137.521" width="6623" height="2692.99" style="fill:none;"/>
            <g transform="matrix(5.90938,0,0,5.90938,-3122.61,-3575.07)">
                <g>
                    <g transform="matrix(0.371734,0,0,0.371734,-2413.41,72.4997)">
                        <path d="M6928.88,2224.74C6928.88,2224.74 6893.47,2172.03 6880.59,2166.39C6880.59,2166.39 6845.25,2203.64 6874.64,2348.8C6874.64,2348.8 6866.03,2254.55 6928.88,2224.74Z" style="fill:rgb(162,144,98);"/>
                    </g>
                    <g transform="matrix(0.371734,0,0,0.371734,-2413.41,72.4997)">
                        <path d="M6950.22,2281.7C6956.75,2247.18 6926.73,2202.77 6905.72,2174.79C6879.91,2140.42 6809.33,2121.22 6803.27,2032.12C6797.21,1943.02 6895.92,1882.85 6895.92,1882.85C6924.2,1921.1 6867.65,1930.89 6867.65,1930.89C6856.45,1970.08 6912.9,2035.39 6973.54,2087.64C7034.18,2139.88 7023.45,2201.46 7002.46,2247.18C6981.47,2292.89 6912.43,2342.81 6912.43,2342.81C6897.03,2303.62 6950.22,2281.7 6950.22,2281.7Z" style="fill:rgb(0,181,101);"/>
                    </g>
                    <g transform="matrix(0.371734,0,0,0.371734,-2413.41,72.4997)">
                        <path d="M6985.85,2085.04C6985.85,2085.04 7069.11,2064.84 7086.46,1961.3C7086.46,1961.3 7119.23,2117.56 7029.41,2173.07C7029.41,2173.07 7017.46,2107.24 6985.85,2085.04Z" style="fill:rgb(162,144,98);"/>
                    </g>
                    <g transform="matrix(0.331476,-0.168255,0.187644,0.369674,-2516.81,1245.96)">
                        <ellipse cx="6975.85" cy="2040.56" rx="27.828" ry="37.627" style="fill:rgb(0,181,101);"/>
                    </g>
                </g>
            </g>
            <g transform="matrix(5.48824,0,0,5.48824,-501.716,-1682.44)">
                <g transform="matrix(0.873472,0,0,0.873472,-644.652,244.926)">
                    <g>
                        <path d="M207.745,399.786L187.229,399.786L187.229,387.642L207.745,387.642L207.745,399.786ZM207.745,414.691L187.229,414.691L187.229,402.547L207.745,402.547L207.745,414.691ZM207.745,429.596L187.229,429.596L187.229,417.452L207.745,417.452L207.745,429.596ZM183.164,399.786L162.648,399.786L162.648,387.642L183.164,387.642L183.164,399.786ZM183.164,414.691L162.648,414.691L162.648,402.547L183.164,402.547L183.164,414.691ZM183.164,429.596L162.648,429.596L162.648,417.452L183.164,417.452L183.164,429.596ZM96.261,399.786L75.745,399.786L75.745,387.642L96.261,387.642L96.261,399.786ZM96.261,414.691L75.745,414.691L75.745,402.547L96.261,402.547L96.261,414.691ZM96.261,429.596L75.745,429.596L75.745,417.452L96.261,417.452L96.261,429.596ZM71.68,399.786L51.164,399.786L51.164,387.642L71.68,387.642L71.68,399.786ZM71.68,414.691L51.164,414.691L51.164,402.547L71.68,402.547L71.68,414.691ZM71.68,429.596L51.164,429.596L51.164,417.452L71.68,417.452L71.68,429.596ZM129.189,310.174C129.189,310.174 155.382,334.89 162.261,341.381C162.528,341.633 162.614,342.022 162.479,342.362C162.344,342.703 162.014,342.927 161.647,342.927C160.129,342.927 158.402,342.927 158.402,342.927L158.402,369.206L100.507,369.206L100.507,342.927L96.896,342.927C96.435,342.927 96.021,342.645 95.853,342.217C95.684,341.788 95.794,341.3 96.131,340.986C103.683,333.947 129.189,310.174 129.189,310.174ZM215.333,372.126L129.506,291.139L44.217,370.635L40.103,374.468L40.103,454.424L91.038,454.424L91.038,452.424L96.187,452.424L96.187,446.94L112.129,446.94L112.129,387.643L146.78,387.643L146.78,446.94L162.721,446.94L162.721,452.424L167.871,452.424L167.871,454.424L218.806,454.424L218.806,375.403L215.333,372.126Z" style="fill:white;fill-rule:nonzero;"/>
                        <path d="M160.918,459.377L155.768,459.377L155.768,453.893L139.827,453.893L139.827,394.596L119.082,394.596L119.082,453.893L103.14,453.893L103.14,459.377L97.991,459.377L97.991,461.377L33.15,461.377L33.15,371.443L39.477,365.548L129.535,281.606L220.105,367.069L225.759,372.404L225.759,461.377L160.918,461.377L160.918,459.377ZM215.333,372.126L129.506,291.139L44.217,370.635L40.103,374.468L40.103,454.424L91.038,454.424L91.038,452.424L96.187,452.424L96.187,446.94L112.129,446.94L112.129,387.643L146.78,387.643L146.78,446.94L162.721,446.94L162.721,452.424L167.871,452.424L167.871,454.424L218.806,454.424L218.806,375.403L215.333,372.126ZM96.261,414.691L75.745,414.691L75.745,402.547L96.261,402.547L96.261,414.691ZM96.261,429.596L75.745,429.596L75.745,417.452L96.261,417.452L96.261,429.596ZM96.261,399.786L75.745,399.786L75.745,387.642L96.261,387.642L96.261,399.786ZM71.68,414.691L51.164,414.691L51.164,402.547L71.68,402.547L71.68,414.691ZM183.164,414.691L162.648,414.691L162.648,402.547L183.164,402.547L183.164,414.691ZM71.68,399.786L51.164,399.786L51.164,387.642L71.68,387.642L71.68,399.786ZM71.68,429.596L51.164,429.596L51.164,417.452L71.68,417.452L71.68,429.596ZM129.189,310.174L162.261,341.381C162.528,341.633 162.614,342.022 162.479,342.362C162.344,342.703 162.014,342.927 161.647,342.927L158.402,342.927L158.402,369.206L100.507,369.206L100.507,342.927L96.896,342.927C96.435,342.927 96.021,342.645 95.853,342.217C95.684,341.788 95.794,341.3 96.131,340.986L129.189,310.174ZM107.46,339.932L107.46,362.253L151.449,362.253L151.449,340.738L129.16,319.707L107.46,339.932ZM207.745,429.596L187.229,429.596L187.229,417.452L207.745,417.452L207.745,429.596ZM207.745,399.786L187.229,399.786L187.229,387.642L207.745,387.642L207.745,399.786ZM207.745,414.691L187.229,414.691L187.229,402.547L207.745,402.547L207.745,414.691ZM183.164,399.786L162.648,399.786L162.648,387.642L183.164,387.642L183.164,399.786ZM183.164,429.596L162.648,429.596L162.648,417.452L183.164,417.452L183.164,429.596Z" style="fill:rgb(1,41,128);"/>
                    </g>
                </g>
            </g>
            <g transform="matrix(9.3035,0,0,8.10921,-3364.35,-3532.26)">
                <rect x="63.112" y="534.107" width="140.78" height="173.211" style="fill:none;"/>
            </g>
        </g>
    </g>
</svg>
