<?xml version="1.0" encoding="UTF-8" standalone="no"?>
<!DOCTYPE svg PUBLIC "-//W3C//DTD SVG 1.1//EN" "http://www.w3.org/Graphics/SVG/1.1/DTD/svg11.dtd">
<svg width="100%" height="100%" viewBox="0 0 467 667" version="1.1" xmlns="http://www.w3.org/2000/svg" xmlns:xlink="http://www.w3.org/1999/xlink" xml:space="preserve" xmlns:serif="http://www.serif.com/" style="fill-rule:evenodd;clip-rule:evenodd;stroke-linejoin:round;stroke-miterlimit:2;">
    <path id="🎨-Color" d="M198.606,43.744l28.658,67.578c12.489,29.449 5.559,64.079 -17.132,85.616l-63.144,59.934c3.896,35.849 15.946,71.149 36.151,105.9c20.204,34.75 45.438,63.577 75.702,86.48l75.84,-25.29c28.746,-9.586 60.053,1.431 77.686,27.337l41.079,60.352c20.497,30.113 16.811,71.658 -8.624,97.192l-27.257,27.364c-27.131,27.238 -65.882,37.117 -101.729,25.936c-84.628,-26.398 -162.439,-104.772 -233.431,-235.121c-71.096,-130.539 -96.188,-241.292 -75.275,-332.259c8.8,-38.277 36.05,-68.76 71.634,-80.13l35.886,-11.467c33.627,-10.745 69.556,6.62 83.956,40.578Z" style="fill:#fff;fill-rule:nonzero;"/>
</svg>
