<?xml version="1.0" encoding="UTF-8" standalone="no"?><!DOCTYPE svg PUBLIC "-//W3C//DTD SVG 1.1//EN" "http://www.w3.org/Graphics/SVG/1.1/DTD/svg11.dtd"><svg width="100%" height="100%" viewBox="0 0 195 201" version="1.1" xmlns="http://www.w3.org/2000/svg" xmlns:xlink="http://www.w3.org/1999/xlink" xml:space="preserve" xmlns:serif="http://www.serif.com/" style="fill-rule:evenodd;clip-rule:evenodd;stroke-linejoin:round;stroke-miterlimit:2;"><g><path d="M91.971,1.792c1.148,-1.148 2.703,-1.792 4.326,-1.792c1.622,0 3.178,0.644 4.325,1.792l13.732,13.732c1.385,1.385 3.349,2.023 5.283,1.716l19.181,-3.038c1.602,-0.254 3.24,0.14 4.552,1.093c1.313,0.954 2.193,2.39 2.447,3.992l3.038,19.181c0.306,1.934 1.52,3.605 3.264,4.494l17.304,8.816c1.446,0.737 2.539,2.017 3.041,3.56c0.501,1.543 0.369,3.222 -0.368,4.668l-8.816,17.303c-0.889,1.745 -0.889,3.81 -0,5.555l8.816,17.303c0.737,1.446 0.869,3.125 0.368,4.668c-0.502,1.542 -1.595,2.823 -3.041,3.56l-17.304,8.816c-1.744,0.889 -2.958,2.56 -3.264,4.494l-3.038,19.181c-0.254,1.602 -1.134,3.038 -2.447,3.992c-1.312,0.953 -2.95,1.347 -4.552,1.093l-19.181,-3.038c-1.934,-0.307 -3.898,0.331 -5.283,1.716l-13.732,13.732c-1.147,1.148 -2.703,1.792 -4.325,1.792c-1.623,-0 -3.178,-0.644 -4.326,-1.792l-13.732,-13.732c-1.384,-1.385 -3.348,-2.023 -5.282,-1.716l-19.182,3.038c-1.602,0.254 -3.239,-0.14 -4.552,-1.093c-1.312,-0.954 -2.192,-2.39 -2.446,-3.992l-3.038,-19.181c-0.306,-1.934 -1.52,-3.605 -3.265,-4.494l-17.303,-8.816c-1.446,-0.737 -2.54,-2.018 -3.041,-3.56c-0.501,-1.543 -0.369,-3.222 0.367,-4.668l8.817,-17.303c0.889,-1.745 0.889,-3.81 0,-5.555l-8.817,-17.303c-0.736,-1.446 -0.868,-3.125 -0.367,-4.668c0.501,-1.543 1.595,-2.823 3.041,-3.56l17.303,-8.816c1.745,-0.889 2.959,-2.56 3.265,-4.494l3.038,-19.181c0.254,-1.602 1.134,-3.038 2.446,-3.992c1.313,-0.953 2.95,-1.347 4.552,-1.093l19.182,3.038c1.934,0.307 3.898,-0.331 5.282,-1.716l13.732,-13.732Zm4.326,18.54c-32.98,-0 -59.755,26.775 -59.755,59.754c0,32.98 26.775,59.755 59.755,59.755c32.979,0 59.755,-26.775 59.755,-59.755c-0,-32.979 -26.776,-59.754 -59.755,-59.754Zm-0,10c27.46,-0 49.755,22.294 49.755,49.754c-0,27.461 -22.295,49.755 -49.755,49.755c-27.461,0 -49.755,-22.294 -49.755,-49.755c0,-27.46 22.294,-49.754 49.755,-49.754Z" style="fill:#fff;"/><path d="M36.231,135.61c-0.007,-0.349 -0.221,-0.661 -0.545,-0.793c-0.324,-0.132 -0.695,-0.059 -0.945,0.185c-4.048,3.966 -15.469,15.159 -24.12,23.639c-1.946,1.907 -2.62,4.765 -1.731,7.341c0.889,2.576 3.182,4.41 5.891,4.711c7.671,0.852 15.459,1.718 15.459,1.718c-0,-0 0.856,8.348 1.635,15.94c0.229,2.237 1.723,4.144 3.84,4.904c2.117,0.759 4.482,0.235 6.081,-1.346c12.923,-12.783 35.724,-35.338 35.724,-35.338l-2.64,-3.6c0,-0 -37.991,14.736 -38.649,-17.361Z" style="fill:#fff;"/><path d="M158.409,135.61c0.007,-0.349 0.221,-0.661 0.545,-0.793c0.323,-0.132 0.695,-0.059 0.945,0.185c4.048,3.966 15.469,15.159 24.12,23.639c1.946,1.907 2.62,4.765 1.731,7.341c-0.889,2.576 -3.182,4.41 -5.891,4.711c-7.671,0.852 -15.459,1.718 -15.459,1.718c-0,-0 -0.856,8.348 -1.635,15.94c-0.229,2.237 -1.723,4.144 -3.84,4.904c-2.117,0.759 -4.482,0.235 -6.081,-1.346c-12.923,-12.783 -35.724,-35.338 -35.724,-35.338l2.64,-3.6c-0,-0 37.991,14.736 38.649,-17.361Z" style="fill:#fff;"/></g></svg>