<?xml version="1.0" encoding="UTF-8" standalone="no"?>
<!DOCTYPE svg PUBLIC "-//W3C//DTD SVG 1.1//EN" "http://www.w3.org/Graphics/SVG/1.1/DTD/svg11.dtd">
<svg width="100%" height="100%" viewBox="0 0 40 40" version="1.1" xmlns="http://www.w3.org/2000/svg" xmlns:xlink="http://www.w3.org/1999/xlink" xml:space="preserve" xmlns:serif="http://www.serif.com/" style="fill-rule:evenodd;clip-rule:evenodd;stroke-linejoin:round;stroke-miterlimit:2;">
    <g>
        <g id="facebook">
        </g>
        <path d="M7.398,35.462l2.835,-0.507l1.723,-0.304c2.432,1.318 5.067,2.027 8.004,2.027c10.215,-0 18.316,-9.202 16.449,-19.754c-1.21,-6.844 -6.568,-12.202 -13.412,-13.413c-10.552,-1.866 -19.754,6.234 -19.754,16.449c-0,3.343 1.013,6.383 2.635,9.018l-0.203,1.519l-0.405,3.04l-0.304,2.33l2.432,-0.405Zm12.562,-35.462c11.044,0 19.96,8.916 19.96,19.96c-0,11.044 -8.916,19.96 -19.96,19.96c-3.038,-0 -5.876,-0.608 -8.409,-1.824l-10.639,1.824l1.419,-10.537l-0.102,-0.203c-1.418,-2.736 -2.229,-5.877 -2.229,-9.22c-0,-11.044 8.918,-19.96 19.96,-19.96Zm-7.092,10.841c1.115,-0.709 1.824,-0.202 2.23,0.912l1.013,2.634c-0,0 0.709,1.419 -1.115,2.837c-0.304,0.203 -0.304,0.203 -0.203,0.71c0.406,1.215 2.027,4.863 7.194,7.7c0.506,0.304 0.608,0.304 1.114,-0.101c0.406,-0.406 0.912,-0.912 1.318,-1.318c0.912,-0.81 1.419,-1.114 2.229,-0.506c0.608,0.405 1.216,0.912 1.824,1.317c0.608,0.507 1.62,1.115 0.608,2.33l-0.912,1.115c-1.317,1.621 -2.432,1.722 -4.155,1.317c-6.585,-1.722 -11.449,-6.383 -13.577,-12.969c-0.709,-2.533 0.304,-4.661 2.432,-5.978Z" style="fill:#fff;"/>
    </g>
</svg>
