<?xml version="1.0" encoding="UTF-8" standalone="no"?><!DOCTYPE svg PUBLIC "-//W3C//DTD SVG 1.1//EN" "http://www.w3.org/Graphics/SVG/1.1/DTD/svg11.dtd"><svg width="100%" height="100%" viewBox="0 0 95 84" version="1.1" xmlns="http://www.w3.org/2000/svg" xmlns:xlink="http://www.w3.org/1999/xlink" xml:space="preserve" xmlns:serif="http://www.serif.com/" style="fill-rule:evenodd;clip-rule:evenodd;stroke-miterlimit:10;"><rect id="Artboard2" x="0" y="0" width="94.56" height="84" style="fill:none;"/><clipPath id="_clip1"><rect x="0" y="0" width="94.56" height="84"/></clipPath><g clip-path="url(#_clip1)"><circle cx="47.686" cy="41.757" r="31.765" style="fill:#fff;"/><g><path d="M24.916,69.289c-7.791,-7.201 -11.088,-12.409 -13.698,-17.319c-3.93,-6.761 0.178,-11.298 9.241,1.693c0.777,2.111 8.993,3.636 10.02,2.767c0.727,-0.11 2.181,-0.331 4.435,-1.312c2.255,-0.983 4.084,-1.945 4.998,-2.426l10.927,1.701c0.001,0.013 2.926,3.052 4.253,4.204c1.327,1.152 2.132,2.103 1.578,2.427c-0.554,0.323 -2.288,0.728 -4.213,0.16c-1.925,-0.569 -3.371,-1.848 -4.094,-2.487c-1.395,0.022 -4.184,0.066 -4.8,0.145c-0.617,0.078 -0.514,0.985 -0.75,1.808c-0.236,0.824 -2.308,2.898 -3.5,4.131c-1.191,1.234 -6.561,4.775 -7.743,5.494c-1.181,0.72 -1.085,1.311 -1.289,1.867c-0.693,-0.256 -2.079,-0.769 -5.365,-2.853Z" style="fill:#116c3b;"/><path d="M41.646,79.295c-0.954,-0.202 -1.75,-0.984 -1.627,-1.405c0.124,-0.423 4.368,-2.865 6.49,-4.087l0.054,-0.094c-0.099,-0.236 -0.299,-0.709 -0.594,-0.665c-0.297,0.045 -4.899,2.984 -7.2,4.454c-0.409,0.167 -1.225,0.502 -2.612,0.08c-1.386,-0.422 -1.475,-1.856 -1.21,-2.158c0.266,-0.301 5.314,-3.284 7.838,-4.776c-0.052,-0.279 -0.156,-0.834 -0.44,-0.842c-0.286,-0.009 -5.579,3.294 -8.225,4.945c-0.531,0.081 -1.455,-0.012 -2.401,-0.768c-0.947,-0.757 -0.793,-1.977 0.289,-2.739c1.083,-0.762 6.167,-3.93 7.699,-5.266c1.532,-1.337 3.597,-3.718 3.888,-4.332c0.291,-0.613 0.502,-1.387 0.608,-1.774l3.909,-0.132c0.591,0.647 1.774,1.94 4.487,2.481c2.713,0.542 5.353,-0.095 5.715,-1.194c0.363,-1.101 -2.943,-3.889 -3.18,-4.228c-0.236,-0.338 0.078,-0.668 0.821,-1.044c0.565,-0.272 3.292,0.384 5.862,0.346c10.657,-0.159 10.394,-9.119 10.635,-9.56l3.908,9.841l0.006,0.002c-0.035,0.17 0.414,0.176 0.373,0.328c-1.835,6.711 -8.708,8.982 -13.426,11.47c-0.984,-0.828 -2.953,-2.483 -4.281,-2.454c-1.329,0.028 -2.022,0.419 -2.244,1.185c-0.222,0.765 -0.291,0.597 -0.782,0.585c-0.491,-0.012 -1.987,-0.814 -3.244,0.351c-1.256,1.165 -0.548,2.48 -0.496,2.692c0.051,0.213 -0.071,0.403 -0.538,0.439c-0.467,0.037 -1.786,0.182 -1.918,1.331c-0.133,1.148 -0.032,1.495 0.019,1.668c-0.403,0.125 -1.209,0.374 -1.456,1.022c-0.247,0.647 -0.222,0.915 -0.21,1.049l-4.456,3.002c-0.369,0.15 -1.106,0.448 -2.061,0.247Z" style="fill:#b6242e;"/><path d="M45.248,79.396c-0.015,-0.632 2.64,-1.995 2.951,-2.19l-0.016,-0.05c0.086,0.018 0.255,0.056 0.39,0.1c0.134,0.044 0.927,0.877 1.055,1.015c0.128,0.138 0.116,0.324 0.11,0.418c-0.492,0.303 -1.474,0.909 -2.411,1.245c-0.936,0.337 -2.063,0.093 -2.079,-0.538Z" style="fill:#b6242e;"/><path d="M49.867,77.088c-0.783,-0.821 -0.798,-1.373 -0.392,-1.813c0.33,-0.227 0.669,-0.252 1.113,-0.058c0.447,0.193 3.16,2.713 3.507,3.263c0.348,0.55 -0.232,1.077 -1.001,1.214c-0.77,0.137 -2.442,-1.784 -3.227,-2.606Z" style="fill:#116c3b;"/><path d="M51.784,74.732c-1.155,-1.137 -1.205,-1.92 -0.65,-2.56c0.457,-0.336 0.937,-0.385 1.58,-0.128c0.643,0.258 4.631,3.733 5.154,4.5c0.523,0.767 -0.274,1.539 -1.361,1.763c-1.087,0.225 -3.566,-2.44 -4.723,-3.575Z" style="fill:#116c3b;"/><path d="M54.292,71.481c-1.305,-1.282 -1.412,-2.271 -0.785,-2.992c0.516,-0.38 1.566,-0.436 2.292,-0.145c0.726,0.289 5.226,4.211 5.817,5.077c0.59,0.866 -0.82,2.082 -1.995,2.095c-1.254,0.015 -4.024,-2.753 -5.329,-4.035Z" style="fill:#116c3b;"/><path d="M58.575,68.825c-0.871,-0.913 -0.979,-1.537 -0.527,-2.026c0.367,-0.252 0.89,-0.272 1.385,-0.058c0.495,0.216 3.694,2.893 4.053,3.514c0.372,0.642 -0.485,1.457 -1.269,1.465c-0.868,0.009 -2.77,-1.982 -3.642,-2.895Z" style="fill:#116c3b;"/><path d="M10.702,51.332c-4.836,-11.191 -1.244,-25.862 6.812,-34.939c11.92,-13.867 32.723,-16.442 47.747,-6.391c-13.728,-5.716 -29.568,-2.844 -40.329,8.035c-9.537,10.413 -11.136,24.32 -4.864,35.403l-7.658,0.462c-0.715,-0.776 -1.303,-1.632 -1.708,-2.57Z" style="fill:#2da76c;"/><path d="M10.702,51.332c-4.836,-11.191 -1.244,-25.862 6.812,-34.939c3.353,-3.9 7.408,-6.907 11.84,-8.991l1.25,-0.554l-0.355,0.201c-16.278,9.52 -21.399,29.276 -11.239,44.43l0.167,0.24l0.351,0.722c0.173,0.336 0.353,0.669 0.54,0.999c-2.553,0.357 -5.106,0.59 -7.658,0.462c-0.714,-0.775 -1.303,-1.632 -1.708,-2.57Z" style="fill:#116c3b;"/><path d="M80.905,45.238c1.403,-11.004 -1.711,-20.414 -9.526,-27.979c-12.431,-11.32 -31.159,-11.356 -43.557,0.466c11.826,-7.281 27.472,-6.714 36.734,2.298c7.867,7.657 10.873,19.801 6.191,32.032c2.219,1.285 5.196,6.228 4.427,7.954c3.102,-4.144 5.07,-9.581 5.731,-14.771Z" style="fill:#26488e;"/><path d="M71.406,52.53l0.571,-1.084c7.896,-15.825 3.693,-32.9 -11.615,-40.722l-0.66,-0.316l1.37,0.486c3.698,1.411 7.199,3.535 10.307,6.365c7.815,7.565 10.929,16.975 9.526,27.979c-0.661,5.19 -2.629,10.627 -5.731,14.771c0.673,-1.51 -1.522,-5.484 -3.568,-7.314l-0.2,-0.165Z" style="fill:#b6242e;"/><path d="M19.264,43.381l0.138,0.676c0.006,0.032 0.024,0.057 0.051,0.075c0.027,0.018 0.057,0.024 0.09,0.018l2.445,-0.486c0.032,-0.007 0.062,-0.002 0.089,0.015c0.028,0.016 0.045,0.042 0.052,0.077l0.147,0.724c0.007,0.032 0.001,0.062 -0.017,0.089c-0.018,0.027 -0.044,0.044 -0.076,0.05l-2.445,0.486c-0.033,0.007 -0.058,0.022 -0.077,0.048c-0.019,0.025 -0.024,0.056 -0.017,0.091l0.14,0.685c0.006,0.032 0,0.062 -0.017,0.089c-0.019,0.027 -0.044,0.044 -0.077,0.051l-0.665,0.132c-0.033,0.006 -0.063,0.001 -0.09,-0.018c-0.028,-0.018 -0.045,-0.043 -0.052,-0.075l-0.519,-2.548c-0.008,-0.035 -0.002,-0.065 0.017,-0.091c0.018,-0.025 0.044,-0.042 0.076,-0.048l0.666,-0.132c0.032,-0.006 0.062,-0.002 0.089,0.015c0.028,0.016 0.045,0.042 0.052,0.077Z" style="fill:#b6242e;fill-rule:nonzero;"/><path d="M21.852,41.783l0.045,0.732c0.003,0.033 -0.007,0.061 -0.029,0.086c-0.022,0.024 -0.049,0.037 -0.082,0.039l-3.406,0.209c-0.033,0.002 -0.062,-0.008 -0.087,-0.029c-0.025,-0.022 -0.038,-0.049 -0.04,-0.082l-0.096,-1.528c-0.012,-0.19 0.009,-0.367 0.064,-0.532c0.055,-0.164 0.136,-0.307 0.246,-0.427c0.109,-0.12 0.241,-0.217 0.396,-0.29c0.155,-0.074 0.329,-0.117 0.522,-0.128c0.106,-0.007 0.212,-0.001 0.318,0.017c0.107,0.018 0.207,0.047 0.303,0.087c0.096,0.04 0.183,0.089 0.262,0.147c0.078,0.058 0.145,0.124 0.2,0.2c0.021,0.025 0.047,0.04 0.076,0.047c0.028,0.006 0.055,-0.001 0.081,-0.022c0.158,-0.135 0.32,-0.276 0.488,-0.425c0.167,-0.148 0.32,-0.281 0.459,-0.398c0.026,-0.021 0.054,-0.028 0.087,-0.02c0.032,0.008 0.049,0.029 0.051,0.061l0.057,0.914c0.002,0.033 -0.004,0.068 -0.021,0.107c-0.015,0.039 -0.036,0.069 -0.061,0.09c-0.133,0.113 -0.267,0.226 -0.404,0.338c-0.136,0.112 -0.274,0.224 -0.414,0.334c-0.025,0.022 -0.046,0.051 -0.062,0.088c-0.016,0.037 -0.023,0.072 -0.021,0.105l0.007,0.108c0.002,0.033 0.015,0.06 0.04,0.082c0.025,0.021 0.054,0.031 0.087,0.029l0.807,-0.05c0.033,-0.002 0.062,0.008 0.087,0.03c0.024,0.021 0.038,0.048 0.04,0.081Zm-1.976,-0.116l-0.033,-0.521c-0.002,-0.04 -0.013,-0.08 -0.03,-0.122c-0.018,-0.041 -0.043,-0.079 -0.077,-0.113c-0.034,-0.034 -0.075,-0.061 -0.123,-0.082c-0.048,-0.02 -0.103,-0.028 -0.167,-0.024c-0.032,0.002 -0.071,0.01 -0.115,0.024c-0.044,0.015 -0.087,0.037 -0.126,0.067c-0.04,0.031 -0.072,0.07 -0.098,0.12c-0.025,0.049 -0.035,0.108 -0.031,0.177l0.033,0.521c0.002,0.033 0.015,0.06 0.04,0.081c0.025,0.022 0.053,0.032 0.087,0.03l0.528,-0.033c0.033,-0.002 0.06,-0.015 0.082,-0.039c0.022,-0.024 0.032,-0.053 0.03,-0.086Z" style="fill:#b6242e;fill-rule:nonzero;"/><path d="M18.189,39.067c-0.033,-0.003 -0.06,-0.017 -0.081,-0.042c-0.021,-0.025 -0.03,-0.054 -0.027,-0.086l0.067,-0.741c0.003,-0.032 0.018,-0.059 0.043,-0.08c0.025,-0.021 0.055,-0.03 0.088,-0.027l2.011,0.18c0.13,0.011 0.238,0 0.326,-0.033c0.088,-0.033 0.159,-0.078 0.213,-0.134c0.054,-0.056 0.093,-0.118 0.119,-0.185c0.027,-0.066 0.042,-0.128 0.047,-0.183c0.006,-0.056 0.001,-0.119 -0.012,-0.189c-0.014,-0.07 -0.042,-0.138 -0.085,-0.2c-0.042,-0.064 -0.104,-0.119 -0.185,-0.168c-0.08,-0.048 -0.185,-0.078 -0.314,-0.089l-2.012,-0.18c-0.033,-0.003 -0.06,-0.017 -0.082,-0.042c-0.021,-0.025 -0.029,-0.054 -0.027,-0.086l0.068,-0.74c0.003,-0.033 0.018,-0.06 0.043,-0.081c0.025,-0.021 0.054,-0.03 0.087,-0.027l2.013,0.18c0.235,0.021 0.445,0.077 0.631,0.167c0.185,0.091 0.339,0.211 0.462,0.36c0.123,0.15 0.213,0.324 0.27,0.524c0.057,0.199 0.075,0.417 0.053,0.652c-0.021,0.235 -0.078,0.446 -0.17,0.632c-0.093,0.186 -0.213,0.342 -0.361,0.467c-0.149,0.125 -0.322,0.217 -0.521,0.275c-0.199,0.058 -0.416,0.076 -0.652,0.055l-2.012,-0.179Z" style="fill:#b6242e;fill-rule:nonzero;"/><path d="M20.899,35.271c0.155,-0.145 0.285,-0.296 0.39,-0.449c0.106,-0.154 0.177,-0.305 0.212,-0.452c0.034,-0.14 0.04,-0.252 0.017,-0.335c-0.023,-0.083 -0.074,-0.134 -0.155,-0.153c-0.042,-0.01 -0.079,-0.002 -0.111,0.024c-0.032,0.027 -0.063,0.064 -0.091,0.113c-0.029,0.049 -0.057,0.107 -0.084,0.175c-0.027,0.068 -0.057,0.137 -0.091,0.207c-0.03,0.067 -0.065,0.145 -0.106,0.236c-0.04,0.09 -0.089,0.18 -0.147,0.271c-0.058,0.091 -0.125,0.179 -0.2,0.264c-0.075,0.086 -0.163,0.157 -0.262,0.214c-0.1,0.058 -0.211,0.097 -0.334,0.117c-0.122,0.02 -0.26,0.012 -0.412,-0.024c-0.223,-0.052 -0.397,-0.138 -0.522,-0.259c-0.124,-0.12 -0.214,-0.257 -0.267,-0.41c-0.054,-0.153 -0.078,-0.314 -0.073,-0.485c0.006,-0.171 0.027,-0.332 0.064,-0.486c0.065,-0.268 0.162,-0.499 0.293,-0.693c0.131,-0.193 0.296,-0.37 0.495,-0.528c0.028,-0.021 0.059,-0.029 0.093,-0.024c0.033,0.004 0.06,0.019 0.081,0.044l0.448,0.501c0.022,0.025 0.032,0.054 0.03,0.088c-0.001,0.033 -0.014,0.06 -0.04,0.081c-0.143,0.139 -0.253,0.273 -0.331,0.403c-0.077,0.13 -0.131,0.255 -0.159,0.373c-0.008,0.035 -0.018,0.076 -0.027,0.122c-0.01,0.047 -0.014,0.093 -0.012,0.137c0.001,0.044 0.011,0.082 0.031,0.116c0.019,0.033 0.051,0.055 0.096,0.066c0.046,0.01 0.094,-0.014 0.146,-0.073c0.052,-0.058 0.101,-0.128 0.148,-0.208c0.046,-0.08 0.087,-0.158 0.121,-0.234c0.033,-0.077 0.055,-0.126 0.063,-0.148c0.051,-0.109 0.115,-0.228 0.191,-0.355c0.077,-0.126 0.173,-0.24 0.288,-0.339c0.114,-0.1 0.25,-0.174 0.407,-0.223c0.157,-0.049 0.34,-0.049 0.547,-0.001c0.194,0.046 0.353,0.119 0.477,0.219c0.125,0.1 0.218,0.221 0.28,0.362c0.061,0.141 0.094,0.3 0.097,0.478c0.003,0.178 -0.02,0.369 -0.069,0.573c-0.041,0.166 -0.092,0.318 -0.154,0.455c-0.062,0.137 -0.133,0.262 -0.211,0.376c-0.079,0.113 -0.164,0.215 -0.256,0.306c-0.092,0.091 -0.186,0.173 -0.283,0.245c-0.025,0.022 -0.056,0.03 -0.091,0.025c-0.034,-0.005 -0.062,-0.02 -0.083,-0.045l-0.45,-0.496c-0.021,-0.025 -0.031,-0.054 -0.03,-0.088c0.002,-0.033 0.013,-0.061 0.036,-0.083Z" style="fill:#b6242e;fill-rule:nonzero;"/><path d="M20.926,29.975l-0.226,0.652c-0.011,0.031 -0.009,0.061 0.006,0.091c0.014,0.029 0.037,0.048 0.068,0.059l2.36,0.796c0.032,0.011 0.055,0.03 0.07,0.058c0.015,0.027 0.017,0.058 0.005,0.092l-0.242,0.699c-0.011,0.031 -0.031,0.054 -0.061,0.068c-0.029,0.014 -0.06,0.016 -0.091,0.006l-2.36,-0.797c-0.032,-0.01 -0.062,-0.009 -0.091,0.004c-0.029,0.012 -0.049,0.036 -0.061,0.07l-0.23,0.661c-0.01,0.031 -0.031,0.054 -0.06,0.068c-0.03,0.014 -0.06,0.016 -0.092,0.006l-0.642,-0.217c-0.031,-0.01 -0.054,-0.03 -0.069,-0.059c-0.014,-0.03 -0.016,-0.06 -0.006,-0.091l0.853,-2.459c0.012,-0.034 0.032,-0.058 0.061,-0.071c0.029,-0.012 0.06,-0.013 0.091,-0.003l0.642,0.217c0.032,0.011 0.055,0.03 0.07,0.057c0.015,0.028 0.017,0.059 0.005,0.093Z" style="fill:#b6242e;fill-rule:nonzero;"/><path d="M24.084,27.897l0.61,0.291c0.031,0.015 0.051,0.037 0.062,0.068c0.011,0.031 0.009,0.061 -0.006,0.09l-1.083,2.212c-0.016,0.032 -0.039,0.054 -0.07,0.062c-0.03,0.01 -0.06,0.007 -0.09,-0.007l-3.072,-1.465c-0.03,-0.015 -0.051,-0.037 -0.063,-0.066c-0.011,-0.029 -0.009,-0.059 0.007,-0.092l0.326,-0.665c0.014,-0.029 0.037,-0.05 0.068,-0.06c0.031,-0.011 0.062,-0.009 0.092,0.005l2.245,1.071c0.03,0.014 0.06,0.017 0.091,0.007c0.03,-0.009 0.053,-0.029 0.069,-0.062l0.653,-1.334c0.015,-0.03 0.038,-0.05 0.069,-0.06c0.031,-0.011 0.061,-0.009 0.092,0.005Z" style="fill:#b6242e;fill-rule:nonzero;"/><path d="M25.347,27.446l-0.391,0.635c-0.019,0.031 -0.044,0.049 -0.075,0.056c-0.031,0.006 -0.061,0.001 -0.089,-0.017l-2.912,-1.746c-0.029,-0.017 -0.047,-0.041 -0.056,-0.071c-0.009,-0.03 -0.003,-0.06 0.015,-0.091l0.392,-0.635c0.017,-0.028 0.042,-0.046 0.074,-0.054c0.032,-0.008 0.062,-0.003 0.09,0.014l2.912,1.747c0.028,0.016 0.047,0.041 0.054,0.072c0.008,0.032 0.004,0.062 -0.014,0.09Z" style="fill:#b6242e;fill-rule:nonzero;"/><path d="M24.083,24.694l0.167,0.123c0.027,0.02 0.057,0.027 0.089,0.023c0.032,-0.005 0.059,-0.02 0.079,-0.047l0.806,-1.064c0.02,-0.026 0.047,-0.042 0.079,-0.046c0.033,-0.005 0.062,0.003 0.089,0.022l0.56,0.413c0.026,0.019 0.042,0.045 0.047,0.078c0.004,0.032 -0.003,0.061 -0.023,0.087l-0.807,1.065c-0.02,0.026 -0.028,0.055 -0.023,0.087c0.005,0.032 0.02,0.059 0.047,0.078l0.883,0.652c0.027,0.019 0.042,0.045 0.047,0.077c0.005,0.033 -0.003,0.062 -0.022,0.088l-0.452,0.595c-0.019,0.027 -0.046,0.042 -0.078,0.047c-0.033,0.004 -0.063,-0.003 -0.089,-0.023l-2.733,-2.016c-0.027,-0.02 -0.042,-0.046 -0.047,-0.078c-0.005,-0.032 0.003,-0.061 0.023,-0.088l1.521,-2.006c0.02,-0.026 0.046,-0.042 0.078,-0.046c0.033,-0.005 0.063,0.002 0.089,0.022l0.548,0.404c0.026,0.02 0.042,0.046 0.047,0.078c0.005,0.032 -0.003,0.061 -0.023,0.088l-0.926,1.221c-0.02,0.027 -0.028,0.056 -0.023,0.088c0.005,0.032 0.02,0.058 0.047,0.078Z" style="fill:#b6242e;fill-rule:nonzero;"/><path d="M26.169,22.189l0.151,0.143c0.024,0.023 0.052,0.034 0.085,0.034c0.033,-0.001 0.061,-0.013 0.084,-0.036l0.941,-0.959c0.023,-0.023 0.051,-0.035 0.084,-0.036c0.033,-0 0.061,0.011 0.085,0.034l0.495,0.472c0.024,0.023 0.036,0.051 0.036,0.084c0.001,0.032 -0.01,0.06 -0.034,0.084l-0.94,0.958c-0.023,0.024 -0.035,0.051 -0.034,0.084c0,0.032 0.012,0.06 0.036,0.083l0.136,0.13c0.024,0.023 0.053,0.034 0.085,0.033c0.033,-0 0.061,-0.012 0.085,-0.036l1.079,-1.099c0.023,-0.024 0.051,-0.036 0.084,-0.036c0.033,-0.001 0.061,0.01 0.086,0.033l0.494,0.473c0.024,0.022 0.036,0.05 0.037,0.083c0,0.032 -0.011,0.06 -0.034,0.084l-1.767,1.799c-0.023,0.024 -0.051,0.036 -0.084,0.037c-0.033,-0 -0.061,-0.011 -0.086,-0.034l-2.45,-2.343c-0.024,-0.022 -0.037,-0.05 -0.037,-0.083c-0.001,-0.032 0.011,-0.06 0.034,-0.084l1.767,-1.799c0.023,-0.024 0.051,-0.036 0.084,-0.036c0.033,-0.001 0.061,0.01 0.085,0.033l0.488,0.466c0.024,0.023 0.036,0.051 0.037,0.083c-0,0.033 -0.011,0.061 -0.034,0.084l-1.08,1.1c-0.023,0.023 -0.034,0.052 -0.034,0.084c0.001,0.032 0.013,0.06 0.036,0.083Z" style="fill:#b6242e;fill-rule:nonzero;"/><path d="M33.018,18.839c0.007,0.181 -0.003,0.356 -0.029,0.525c-0.026,0.168 -0.075,0.329 -0.145,0.482c-0.071,0.153 -0.166,0.298 -0.285,0.436c-0.119,0.137 -0.267,0.264 -0.445,0.38c-0.221,0.146 -0.457,0.241 -0.705,0.286c-0.249,0.046 -0.494,0.046 -0.733,0.002c-0.239,-0.044 -0.464,-0.132 -0.674,-0.266c-0.21,-0.134 -0.387,-0.308 -0.531,-0.521c-0.144,-0.213 -0.238,-0.441 -0.282,-0.684c-0.044,-0.243 -0.04,-0.482 0.011,-0.717c0.052,-0.234 0.147,-0.456 0.285,-0.665c0.139,-0.21 0.319,-0.387 0.54,-0.533c0.183,-0.119 0.362,-0.207 0.536,-0.263c0.175,-0.055 0.346,-0.085 0.515,-0.089c0.169,-0.004 0.336,0.014 0.503,0.057c0.166,0.042 0.332,0.1 0.497,0.173c0.029,0.013 0.047,0.035 0.055,0.064c0.009,0.031 0.004,0.059 -0.014,0.086l-0.434,0.617c-0.021,0.029 -0.049,0.047 -0.084,0.054c-0.035,0.008 -0.067,0.005 -0.095,-0.008c-0.165,-0.073 -0.327,-0.105 -0.486,-0.098c-0.158,0.008 -0.318,0.064 -0.478,0.17c-0.106,0.069 -0.19,0.156 -0.253,0.261c-0.064,0.104 -0.105,0.215 -0.126,0.333c-0.021,0.118 -0.018,0.237 0.008,0.358c0.026,0.121 0.072,0.232 0.141,0.334c0.07,0.103 0.156,0.189 0.258,0.258c0.102,0.069 0.212,0.116 0.329,0.142c0.117,0.025 0.237,0.029 0.359,0.012c0.123,-0.017 0.237,-0.06 0.342,-0.129c0.152,-0.1 0.265,-0.227 0.34,-0.38c0.074,-0.153 0.108,-0.311 0.103,-0.473c-0.001,-0.031 0.008,-0.061 0.027,-0.089c0.019,-0.028 0.046,-0.046 0.081,-0.053l0.745,-0.158c0.032,-0.005 0.06,0.001 0.084,0.019c0.024,0.017 0.037,0.043 0.04,0.077Z" style="fill:#b6242e;fill-rule:nonzero;"/><path d="M35.734,17.723l0.303,0.6c0.015,0.029 0.017,0.06 0.006,0.09c-0.01,0.031 -0.03,0.054 -0.06,0.069l-2.229,1.095c-0.033,0.016 -0.064,0.018 -0.093,0.007c-0.03,-0.011 -0.052,-0.031 -0.067,-0.061l-1.521,-3.014c-0.015,-0.029 -0.018,-0.059 -0.009,-0.089c0.009,-0.03 0.03,-0.053 0.063,-0.069l0.67,-0.329c0.029,-0.015 0.06,-0.017 0.091,-0.007c0.031,0.011 0.054,0.031 0.069,0.06l1.112,2.203c0.015,0.029 0.037,0.049 0.067,0.06c0.029,0.011 0.061,0.009 0.093,-0.007l1.345,-0.661c0.029,-0.014 0.06,-0.016 0.091,-0.006c0.031,0.01 0.054,0.03 0.069,0.059Z" style="fill:#b6242e;fill-rule:nonzero;"/><path d="M37.01,18.122l-0.7,0.276c-0.033,0.013 -0.064,0.013 -0.093,-0.001c-0.029,-0.013 -0.05,-0.035 -0.062,-0.065l-1.263,-3.123c-0.012,-0.03 -0.012,-0.06 -0.001,-0.09c0.011,-0.029 0.034,-0.05 0.068,-0.063l0.7,-0.276c0.03,-0.012 0.061,-0.012 0.091,0.001c0.031,0.013 0.052,0.035 0.064,0.065l1.263,3.123c0.012,0.03 0.012,0.06 -0.001,0.09c-0.013,0.03 -0.035,0.051 -0.066,0.063Z" style="fill:#b6242e;fill-rule:nonzero;"/><path d="M39.909,13.677l0.841,3.263c0.008,0.032 0.004,0.062 -0.013,0.09c-0.017,0.028 -0.041,0.046 -0.074,0.054l-0.715,0.18c-0.032,0.007 -0.069,0.006 -0.109,-0.004c-0.04,-0.01 -0.074,-0.025 -0.1,-0.046l-1.713,-1.434c-0.026,-0.021 -0.049,-0.026 -0.068,-0.016c-0.02,0.01 -0.026,0.031 -0.018,0.063l0.441,1.708c0.008,0.032 0.004,0.062 -0.013,0.09c-0.017,0.027 -0.041,0.046 -0.074,0.053l-0.72,0.181c-0.032,0.009 -0.062,0.004 -0.091,-0.012c-0.028,-0.017 -0.046,-0.041 -0.055,-0.073l-0.841,-3.262c-0.008,-0.032 -0.004,-0.062 0.012,-0.09c0.018,-0.028 0.042,-0.046 0.074,-0.054l0.725,-0.182c0.033,-0.008 0.069,-0.008 0.109,0c0.04,0.009 0.073,0.023 0.098,0.044l1.709,1.435c0.026,0.021 0.049,0.027 0.069,0.019c0.02,-0.009 0.026,-0.029 0.018,-0.061l-0.44,-1.708c-0.008,-0.031 -0.004,-0.061 0.012,-0.089c0.018,-0.028 0.042,-0.046 0.074,-0.054l0.716,-0.18c0.032,-0.008 0.063,-0.004 0.091,0.013c0.028,0.016 0.046,0.04 0.055,0.072Z" style="fill:#b6242e;fill-rule:nonzero;"/><path d="M42.143,16.895l-0.747,0.096c-0.036,0.004 -0.066,-0.003 -0.091,-0.023c-0.024,-0.021 -0.038,-0.047 -0.043,-0.079l-0.438,-3.334c-0.004,-0.033 0.003,-0.062 0.021,-0.088c0.019,-0.025 0.046,-0.04 0.083,-0.045l0.746,-0.095c0.033,-0.004 0.063,0.003 0.089,0.023c0.026,0.02 0.041,0.046 0.045,0.079l0.439,3.334c0.004,0.032 -0.004,0.061 -0.024,0.087c-0.02,0.026 -0.046,0.041 -0.08,0.045Z" style="fill:#b6242e;fill-rule:nonzero;"/><path d="M46.124,15.713c-0.092,0.158 -0.194,0.301 -0.307,0.431c-0.112,0.13 -0.239,0.241 -0.381,0.334c-0.142,0.093 -0.3,0.166 -0.475,0.221c-0.175,0.054 -0.369,0.085 -0.581,0.091c-0.266,0.008 -0.517,-0.034 -0.753,-0.125c-0.235,-0.091 -0.443,-0.218 -0.623,-0.38c-0.179,-0.162 -0.322,-0.355 -0.429,-0.578c-0.107,-0.223 -0.164,-0.463 -0.172,-0.719c-0.008,-0.256 0.034,-0.498 0.127,-0.728c0.093,-0.229 0.224,-0.43 0.393,-0.602c0.17,-0.173 0.369,-0.311 0.599,-0.417c0.23,-0.105 0.478,-0.162 0.743,-0.17c0.22,-0.007 0.418,0.012 0.596,0.056c0.178,0.044 0.339,0.108 0.485,0.192c0.146,0.085 0.278,0.188 0.397,0.311c0.118,0.123 0.228,0.259 0.329,0.407c0.017,0.025 0.021,0.053 0.012,0.083c-0.009,0.03 -0.028,0.052 -0.058,0.066l-0.699,0.297c-0.033,0.014 -0.066,0.015 -0.1,0.002c-0.033,-0.012 -0.059,-0.031 -0.076,-0.056c-0.102,-0.149 -0.221,-0.26 -0.36,-0.337c-0.139,-0.076 -0.305,-0.111 -0.498,-0.106c-0.126,0.004 -0.244,0.034 -0.354,0.09c-0.109,0.055 -0.205,0.128 -0.285,0.218c-0.08,0.089 -0.142,0.192 -0.185,0.308c-0.043,0.116 -0.063,0.235 -0.059,0.356c0.004,0.125 0.031,0.243 0.081,0.355c0.05,0.111 0.118,0.208 0.203,0.291c0.086,0.083 0.185,0.149 0.298,0.198c0.113,0.049 0.233,0.072 0.359,0.068c0.183,-0.005 0.347,-0.054 0.492,-0.145c0.146,-0.092 0.26,-0.207 0.342,-0.348c0.016,-0.027 0.039,-0.047 0.07,-0.061c0.031,-0.014 0.064,-0.015 0.098,-0.003l0.716,0.254c0.03,0.012 0.051,0.032 0.062,0.06c0.011,0.028 0.008,0.057 -0.007,0.086Z" style="fill:#b6242e;fill-rule:nonzero;"/><path d="M47.564,13.342c0.017,-0.028 0.043,-0.05 0.076,-0.068c0.034,-0.017 0.069,-0.024 0.106,-0.02l0.694,0.079c0.033,0.004 0.064,0.018 0.092,0.043c0.029,0.025 0.049,0.053 0.059,0.083l1.057,3.49c0.01,0.031 0.004,0.062 -0.018,0.093c-0.022,0.03 -0.06,0.042 -0.113,0.036l-0.847,-0.097c-0.036,-0.004 -0.069,-0.018 -0.098,-0.043c-0.029,-0.024 -0.05,-0.052 -0.063,-0.084l-0.099,-0.309c-0.013,-0.031 -0.034,-0.059 -0.063,-0.083c-0.029,-0.025 -0.06,-0.039 -0.093,-0.043l-1.046,-0.119c-0.036,-0.005 -0.072,0.002 -0.105,0.02c-0.034,0.017 -0.059,0.04 -0.076,0.068l-0.173,0.277c-0.017,0.028 -0.042,0.051 -0.076,0.068c-0.034,0.018 -0.067,0.025 -0.1,0.022l-0.853,-0.098c-0.016,-0.002 -0.033,-0.007 -0.051,-0.016c-0.017,-0.008 -0.031,-0.02 -0.041,-0.034c-0.01,-0.015 -0.016,-0.032 -0.017,-0.052c-0,-0.02 0.007,-0.042 0.023,-0.066l1.825,-3.147Zm0.044,2.161l0.441,0.051c0.033,0.003 0.058,-0.005 0.075,-0.024c0.018,-0.02 0.02,-0.045 0.007,-0.076c-0.024,-0.085 -0.052,-0.185 -0.086,-0.3c-0.033,-0.115 -0.064,-0.221 -0.093,-0.32c-0.009,-0.031 -0.023,-0.047 -0.039,-0.05c-0.017,-0.001 -0.033,0.012 -0.05,0.039l-0.317,0.564c-0.017,0.028 -0.019,0.053 -0.009,0.076c0.011,0.022 0.034,0.036 0.071,0.04Z" style="fill:#b6242e;fill-rule:nonzero;"/><path d="M52.408,17.042l-0.174,0.647c-0.008,0.032 -0.027,0.056 -0.055,0.072c-0.029,0.016 -0.059,0.02 -0.091,0.012l-2.407,-0.628c-0.035,-0.01 -0.06,-0.028 -0.075,-0.056c-0.015,-0.028 -0.019,-0.057 -0.01,-0.089l0.873,-3.255c0.008,-0.031 0.026,-0.056 0.052,-0.072c0.027,-0.017 0.059,-0.021 0.094,-0.012l0.723,0.189c0.033,0.009 0.057,0.027 0.074,0.055c0.016,0.028 0.02,0.058 0.012,0.09l-0.638,2.378c-0.009,0.032 -0.006,0.062 0.009,0.089c0.015,0.028 0.04,0.047 0.076,0.056l1.452,0.379c0.032,0.008 0.056,0.026 0.073,0.054c0.016,0.029 0.02,0.059 0.012,0.091Z" style="fill:#b6242e;fill-rule:nonzero;"/><path d="M56.398,18.688l-0.28,0.61c-0.014,0.03 -0.036,0.051 -0.067,0.062c-0.031,0.012 -0.062,0.011 -0.092,-0.003l-2.268,-1.013c-0.033,-0.015 -0.055,-0.037 -0.065,-0.067c-0.01,-0.03 -0.008,-0.06 0.005,-0.09l1.408,-3.066c0.014,-0.03 0.035,-0.052 0.065,-0.064c0.029,-0.012 0.06,-0.01 0.094,0.005l0.681,0.304c0.031,0.014 0.052,0.036 0.063,0.066c0.012,0.03 0.011,0.061 -0.003,0.09l-1.029,2.242c-0.013,0.03 -0.015,0.06 -0.005,0.089c0.01,0.03 0.032,0.053 0.065,0.067l1.368,0.611c0.031,0.014 0.052,0.036 0.063,0.066c0.012,0.031 0.01,0.061 -0.003,0.091Z" style="fill:#b6242e;fill-rule:nonzero;"/><path d="M59.037,17.114c0.027,-0.018 0.06,-0.027 0.098,-0.028c0.038,-0.002 0.073,0.007 0.104,0.027l0.589,0.371c0.027,0.018 0.049,0.044 0.064,0.079c0.015,0.034 0.02,0.068 0.015,0.1l-0.599,3.594c-0.005,0.032 -0.024,0.057 -0.057,0.075c-0.034,0.018 -0.073,0.013 -0.118,-0.015l-0.719,-0.454c-0.03,-0.019 -0.053,-0.046 -0.068,-0.081c-0.015,-0.035 -0.022,-0.069 -0.02,-0.103l0.048,-0.32c0.002,-0.034 -0.004,-0.068 -0.02,-0.103c-0.014,-0.035 -0.036,-0.061 -0.064,-0.078l-0.887,-0.56c-0.031,-0.019 -0.065,-0.029 -0.104,-0.027c-0.038,0.001 -0.071,0.011 -0.098,0.028l-0.279,0.175c-0.027,0.018 -0.06,0.027 -0.098,0.028c-0.039,0.002 -0.072,-0.006 -0.1,-0.024l-0.723,-0.456c-0.014,-0.009 -0.027,-0.021 -0.039,-0.036c-0.012,-0.015 -0.019,-0.032 -0.021,-0.049c-0.003,-0.017 -0,-0.035 0.008,-0.053c0.007,-0.019 0.024,-0.035 0.05,-0.05l3.038,-2.04Zm-0.921,1.961l0.374,0.236c0.028,0.018 0.054,0.021 0.078,0.012c0.025,-0.01 0.038,-0.032 0.04,-0.066c0.017,-0.087 0.036,-0.189 0.056,-0.306c0.021,-0.118 0.041,-0.227 0.059,-0.329c0.005,-0.031 0,-0.052 -0.014,-0.061c-0.014,-0.009 -0.034,-0.004 -0.062,0.014l-0.535,0.369c-0.027,0.018 -0.041,0.039 -0.041,0.064c-0.001,0.025 0.014,0.048 0.045,0.067Z" style="fill:#b6242e;fill-rule:nonzero;"/><path d="M62.378,21.661c0.02,0.057 0.036,0.119 0.048,0.185c0.012,0.067 0.015,0.138 0.007,0.214c-0.007,0.076 -0.028,0.154 -0.061,0.234c-0.033,0.081 -0.085,0.16 -0.154,0.24c-0.142,0.161 -0.285,0.272 -0.429,0.333c-0.144,0.062 -0.288,0.086 -0.432,0.074c-0.143,-0.012 -0.283,-0.054 -0.421,-0.125c-0.137,-0.072 -0.268,-0.162 -0.394,-0.269l-1.195,-1.023c-0.025,-0.021 -0.039,-0.049 -0.041,-0.081c-0.002,-0.032 0.007,-0.061 0.029,-0.086l2.236,-2.543c0.022,-0.025 0.049,-0.038 0.082,-0.041c0.033,-0.002 0.062,0.008 0.087,0.029l1.139,0.975c0.12,0.102 0.224,0.215 0.312,0.335c0.088,0.121 0.147,0.247 0.179,0.379c0.032,0.131 0.032,0.267 -0,0.406c-0.033,0.139 -0.11,0.279 -0.232,0.418c-0.098,0.111 -0.211,0.184 -0.34,0.217c-0.128,0.034 -0.246,0.046 -0.353,0.037c-0.073,-0.007 -0.096,0.024 -0.067,0.092Zm-0.8,-1.187l0.351,0.3c0.05,0.043 0.107,0.058 0.171,0.046c0.064,-0.012 0.117,-0.042 0.158,-0.089c0.039,-0.045 0.054,-0.098 0.046,-0.162c-0.008,-0.063 -0.028,-0.109 -0.061,-0.137l-0.359,-0.307c-0.025,-0.021 -0.054,-0.031 -0.086,-0.028c-0.033,0.002 -0.06,0.015 -0.082,0.04l-0.15,0.171c-0.022,0.024 -0.031,0.053 -0.029,0.085c0.002,0.033 0.016,0.059 0.041,0.081Zm-0.144,0.952l-0.396,-0.338c-0.025,-0.022 -0.053,-0.032 -0.086,-0.029c-0.033,0.002 -0.06,0.016 -0.082,0.04l-0.187,0.212c-0.021,0.025 -0.031,0.054 -0.029,0.086c0.002,0.032 0.016,0.06 0.042,0.081l0.421,0.361c0.046,0.039 0.105,0.057 0.178,0.054c0.073,-0.002 0.131,-0.029 0.174,-0.078c0.04,-0.045 0.06,-0.106 0.061,-0.186c0.002,-0.079 -0.03,-0.147 -0.096,-0.203Z" style="fill:#b6242e;fill-rule:nonzero;"/><path d="M62.958,22.243c0.197,-0.167 0.415,-0.286 0.654,-0.358c0.24,-0.073 0.48,-0.1 0.72,-0.083c0.24,0.017 0.473,0.08 0.698,0.189c0.225,0.107 0.422,0.259 0.591,0.453c0.168,0.195 0.289,0.41 0.363,0.646c0.073,0.236 0.1,0.473 0.082,0.712c-0.019,0.238 -0.083,0.468 -0.193,0.69c-0.11,0.222 -0.263,0.417 -0.46,0.583c-0.197,0.166 -0.415,0.286 -0.655,0.358c-0.239,0.073 -0.479,0.099 -0.721,0.081c-0.242,-0.019 -0.475,-0.082 -0.7,-0.19c-0.225,-0.108 -0.422,-0.26 -0.59,-0.454c-0.169,-0.195 -0.29,-0.41 -0.364,-0.646c-0.073,-0.236 -0.1,-0.473 -0.08,-0.71c0.02,-0.237 0.085,-0.466 0.195,-0.689c0.109,-0.222 0.263,-0.416 0.46,-0.582Zm0.642,0.741c-0.096,0.081 -0.172,0.175 -0.228,0.282c-0.056,0.108 -0.09,0.22 -0.103,0.337c-0.012,0.116 -0.003,0.232 0.029,0.347c0.032,0.116 0.089,0.22 0.169,0.312c0.08,0.092 0.175,0.163 0.285,0.212c0.111,0.05 0.227,0.078 0.346,0.084c0.12,0.007 0.238,-0.008 0.354,-0.046c0.116,-0.037 0.222,-0.097 0.319,-0.178c0.093,-0.079 0.169,-0.172 0.226,-0.281c0.057,-0.109 0.09,-0.221 0.1,-0.338c0.011,-0.117 0,-0.233 -0.032,-0.348c-0.032,-0.116 -0.088,-0.22 -0.168,-0.312c-0.08,-0.092 -0.176,-0.163 -0.286,-0.212c-0.111,-0.049 -0.224,-0.077 -0.342,-0.084c-0.118,-0.007 -0.235,0.009 -0.353,0.048c-0.117,0.038 -0.223,0.098 -0.316,0.177Z" style="fill:#b6242e;fill-rule:nonzero;"/><path d="M64.578,27.184l-0.389,-0.625c-0.017,-0.028 -0.022,-0.058 -0.014,-0.089c0.008,-0.032 0.025,-0.056 0.054,-0.074l2.909,-1.759c0.029,-0.017 0.059,-0.022 0.091,-0.014c0.032,0.007 0.057,0.025 0.074,0.053l0.811,1.306c0.101,0.162 0.166,0.329 0.196,0.499c0.03,0.171 0.025,0.334 -0.014,0.491c-0.039,0.156 -0.11,0.303 -0.212,0.44c-0.102,0.137 -0.236,0.255 -0.4,0.355c-0.091,0.055 -0.187,0.098 -0.29,0.132c-0.102,0.032 -0.205,0.054 -0.309,0.062c-0.104,0.009 -0.204,0.006 -0.301,-0.008c-0.097,-0.015 -0.187,-0.043 -0.271,-0.085c-0.031,-0.011 -0.061,-0.013 -0.09,-0.006c-0.028,0.008 -0.048,0.027 -0.06,0.057c-0.076,0.192 -0.153,0.392 -0.23,0.601c-0.077,0.208 -0.15,0.396 -0.217,0.564c-0.012,0.03 -0.035,0.049 -0.067,0.058c-0.032,0.007 -0.057,-0.003 -0.074,-0.031l-0.485,-0.78c-0.017,-0.028 -0.028,-0.063 -0.033,-0.104c-0.004,-0.042 0,-0.078 0.012,-0.109c0.064,-0.161 0.129,-0.323 0.196,-0.485c0.067,-0.162 0.136,-0.324 0.207,-0.487c0.013,-0.03 0.017,-0.066 0.013,-0.106c-0.003,-0.04 -0.014,-0.074 -0.031,-0.102l-0.057,-0.092c-0.018,-0.028 -0.043,-0.046 -0.075,-0.054c-0.032,-0.007 -0.062,-0.002 -0.09,0.015l-0.689,0.416c-0.029,0.017 -0.059,0.022 -0.091,0.014c-0.032,-0.007 -0.057,-0.025 -0.074,-0.053Zm1.8,-0.811l0.277,0.445c0.021,0.033 0.049,0.065 0.084,0.093c0.036,0.029 0.076,0.051 0.122,0.065c0.047,0.015 0.095,0.02 0.147,0.015c0.052,-0.004 0.105,-0.023 0.159,-0.055c0.028,-0.017 0.059,-0.042 0.091,-0.075c0.032,-0.033 0.058,-0.072 0.079,-0.118c0.021,-0.045 0.031,-0.095 0.03,-0.15c-0.002,-0.056 -0.02,-0.113 -0.057,-0.171l-0.276,-0.445c-0.018,-0.028 -0.042,-0.046 -0.074,-0.054c-0.032,-0.007 -0.063,-0.003 -0.091,0.015l-0.451,0.272c-0.028,0.018 -0.046,0.042 -0.054,0.074c-0.008,0.031 -0.003,0.061 0.014,0.089Z" style="fill:#b6242e;fill-rule:nonzero;"/><path d="M69.534,28.916c0.032,0.001 0.065,0.011 0.097,0.031c0.032,0.021 0.056,0.048 0.071,0.081l0.275,0.633c0.013,0.03 0.016,0.064 0.009,0.101c-0.008,0.037 -0.023,0.067 -0.045,0.091l-2.542,2.641c-0.023,0.024 -0.053,0.034 -0.091,0.031c-0.037,-0.004 -0.067,-0.03 -0.088,-0.078l-0.336,-0.774c-0.015,-0.033 -0.018,-0.068 -0.011,-0.105c0.008,-0.037 0.022,-0.069 0.043,-0.096l0.221,-0.239c0.022,-0.026 0.035,-0.058 0.043,-0.095c0.008,-0.037 0.005,-0.071 -0.008,-0.101l-0.416,-0.955c-0.014,-0.033 -0.038,-0.059 -0.07,-0.08c-0.032,-0.02 -0.065,-0.03 -0.098,-0.031l-0.33,-0.01c-0.032,-0 -0.065,-0.011 -0.097,-0.031c-0.033,-0.02 -0.056,-0.045 -0.068,-0.075l-0.339,-0.778c-0.007,-0.015 -0.01,-0.033 -0.012,-0.052c-0.001,-0.019 0.002,-0.037 0.01,-0.052c0.008,-0.016 0.02,-0.029 0.037,-0.04c0.017,-0.011 0.04,-0.015 0.07,-0.014l3.675,-0.003Zm-1.879,1.112l0.176,0.403c0.013,0.03 0.032,0.048 0.058,0.053c0.026,0.005 0.049,-0.006 0.07,-0.033c0.063,-0.062 0.137,-0.136 0.221,-0.222c0.084,-0.085 0.162,-0.165 0.235,-0.239c0.023,-0.023 0.03,-0.043 0.024,-0.058c-0.007,-0.015 -0.027,-0.023 -0.059,-0.023l-0.653,0.009c-0.033,-0 -0.057,0.009 -0.072,0.03c-0.014,0.02 -0.014,0.047 0,0.08Z" style="fill:#b6242e;fill-rule:nonzero;"/><path d="M70.395,33.783l-0.197,-0.66c-0.009,-0.032 -0.028,-0.055 -0.057,-0.071c-0.029,-0.016 -0.059,-0.019 -0.091,-0.009l-2.393,0.694c-0.032,0.009 -0.062,0.006 -0.09,-0.008c-0.029,-0.014 -0.048,-0.038 -0.059,-0.073l-0.211,-0.708c-0.009,-0.032 -0.006,-0.062 0.01,-0.09c0.016,-0.029 0.039,-0.048 0.071,-0.057l2.393,-0.694c0.032,-0.009 0.056,-0.027 0.072,-0.054c0.016,-0.027 0.019,-0.058 0.009,-0.092l-0.2,-0.671c-0.009,-0.031 -0.006,-0.062 0.01,-0.09c0.016,-0.028 0.04,-0.048 0.071,-0.056l0.652,-0.189c0.032,-0.01 0.062,-0.007 0.091,0.009c0.029,0.016 0.048,0.039 0.058,0.071l0.742,2.493c0.011,0.035 0.008,0.066 -0.009,0.092c-0.016,0.028 -0.04,0.046 -0.072,0.055l-0.651,0.189c-0.032,0.009 -0.062,0.007 -0.09,-0.007c-0.029,-0.014 -0.049,-0.039 -0.059,-0.074Z" style="fill:#b6242e;fill-rule:nonzero;"/><path d="M69.608,34.255c0.257,-0.037 0.506,-0.024 0.748,0.04c0.241,0.065 0.459,0.168 0.653,0.308c0.195,0.142 0.358,0.317 0.49,0.526c0.132,0.21 0.217,0.442 0.255,0.695c0.038,0.253 0.024,0.499 -0.041,0.738c-0.066,0.238 -0.171,0.453 -0.315,0.645c-0.145,0.192 -0.323,0.353 -0.536,0.484c-0.212,0.13 -0.447,0.214 -0.704,0.251c-0.256,0.037 -0.506,0.024 -0.747,-0.041c-0.242,-0.064 -0.46,-0.168 -0.654,-0.311c-0.195,-0.142 -0.358,-0.318 -0.49,-0.528c-0.132,-0.21 -0.217,-0.441 -0.255,-0.694c-0.038,-0.254 -0.024,-0.5 0.041,-0.738c0.066,-0.238 0.17,-0.452 0.315,-0.643c0.145,-0.19 0.324,-0.35 0.536,-0.481c0.213,-0.13 0.448,-0.214 0.704,-0.251Zm0.144,0.964c-0.125,0.018 -0.24,0.058 -0.345,0.12c-0.106,0.061 -0.195,0.139 -0.268,0.231c-0.074,0.092 -0.129,0.195 -0.164,0.309c-0.035,0.115 -0.043,0.232 -0.026,0.353c0.019,0.12 0.061,0.23 0.128,0.329c0.067,0.1 0.149,0.185 0.247,0.253c0.098,0.069 0.206,0.118 0.324,0.147c0.119,0.029 0.242,0.035 0.366,0.017c0.122,-0.018 0.237,-0.058 0.344,-0.12c0.106,-0.062 0.195,-0.14 0.268,-0.233c0.071,-0.093 0.125,-0.197 0.16,-0.312c0.035,-0.114 0.043,-0.232 0.026,-0.352c-0.019,-0.12 -0.061,-0.23 -0.128,-0.33c-0.067,-0.1 -0.149,-0.183 -0.244,-0.25c-0.096,-0.068 -0.204,-0.116 -0.324,-0.145c-0.121,-0.029 -0.242,-0.035 -0.364,-0.017Z" style="fill:#b6242e;fill-rule:nonzero;"/><path d="M68.325,39.288l0.008,-0.734c-0,-0.032 0.012,-0.06 0.035,-0.083c0.024,-0.022 0.052,-0.033 0.086,-0.033l3.412,0.035c0.033,0.001 0.061,0.012 0.084,0.036c0.023,0.023 0.034,0.051 0.034,0.084l-0.016,1.531c-0.002,0.19 -0.037,0.366 -0.103,0.526c-0.067,0.16 -0.159,0.296 -0.276,0.408c-0.118,0.112 -0.257,0.199 -0.418,0.262c-0.16,0.062 -0.336,0.092 -0.529,0.09c-0.107,-0.001 -0.212,-0.014 -0.316,-0.04c-0.105,-0.026 -0.204,-0.062 -0.296,-0.109c-0.093,-0.047 -0.176,-0.102 -0.25,-0.165c-0.075,-0.063 -0.136,-0.134 -0.185,-0.213c-0.02,-0.027 -0.044,-0.044 -0.072,-0.053c-0.028,-0.008 -0.056,-0.003 -0.083,0.017c-0.167,0.122 -0.34,0.252 -0.518,0.388c-0.177,0.135 -0.34,0.257 -0.487,0.364c-0.027,0.019 -0.056,0.024 -0.088,0.014c-0.031,-0.011 -0.047,-0.032 -0.046,-0.065l0.009,-0.915c0,-0.033 0.01,-0.068 0.029,-0.106c0.018,-0.037 0.041,-0.066 0.068,-0.085c0.141,-0.103 0.283,-0.207 0.428,-0.309c0.144,-0.101 0.29,-0.203 0.437,-0.303c0.027,-0.019 0.049,-0.047 0.068,-0.083c0.019,-0.036 0.028,-0.07 0.029,-0.103l0.001,-0.108c0,-0.033 -0.011,-0.062 -0.034,-0.085c-0.023,-0.023 -0.051,-0.034 -0.085,-0.035l-0.808,-0.009c-0.033,0 -0.061,-0.012 -0.084,-0.035c-0.023,-0.023 -0.034,-0.051 -0.034,-0.084Zm1.962,0.257l-0.005,0.522c-0.001,0.04 0.006,0.08 0.02,0.123c0.015,0.043 0.038,0.083 0.069,0.119c0.031,0.037 0.07,0.067 0.116,0.09c0.047,0.024 0.102,0.036 0.165,0.036c0.033,0.001 0.072,-0.004 0.117,-0.015c0.045,-0.012 0.089,-0.031 0.13,-0.058c0.042,-0.028 0.078,-0.065 0.106,-0.113c0.029,-0.047 0.044,-0.105 0.045,-0.174l0.005,-0.522c0.001,-0.033 -0.01,-0.061 -0.033,-0.084c-0.023,-0.023 -0.052,-0.035 -0.085,-0.035l-0.529,-0.006c-0.033,-0 -0.062,0.011 -0.085,0.034c-0.024,0.022 -0.035,0.05 -0.036,0.083Z" style="fill:#b6242e;fill-rule:nonzero;"/><path d="M71.304,45.089l-1.817,-1.508c-0.027,-0.02 -0.061,-0.041 -0.102,-0.06c-0.041,-0.019 -0.078,-0.031 -0.11,-0.036l-1.131,-0.164c-0.033,-0.005 -0.059,-0.02 -0.079,-0.046c-0.019,-0.026 -0.026,-0.056 -0.022,-0.088l0.11,-0.735c0.005,-0.033 0.021,-0.059 0.047,-0.078c0.027,-0.02 0.056,-0.027 0.089,-0.022l1.126,0.164c0.032,0.004 0.072,0.004 0.118,-0.001c0.046,-0.005 0.083,-0.013 0.112,-0.025c0.368,-0.146 0.73,-0.296 1.086,-0.452c0.357,-0.156 0.722,-0.309 1.098,-0.46c0.032,-0.012 0.063,-0.011 0.093,0.004c0.029,0.014 0.042,0.037 0.037,0.07l-0.129,0.867c-0.005,0.032 -0.02,0.064 -0.045,0.095c-0.025,0.031 -0.053,0.053 -0.085,0.065l-1.146,0.445c-0.029,0.012 -0.045,0.03 -0.048,0.053c-0.004,0.023 0.006,0.044 0.031,0.064l0.967,0.748c0.027,0.02 0.048,0.049 0.063,0.086c0.014,0.037 0.019,0.072 0.014,0.104l-0.131,0.877c-0.004,0.032 -0.019,0.054 -0.045,0.066c-0.025,0.011 -0.059,-0 -0.101,-0.033Z" style="fill:#b6242e;fill-rule:nonzero;"/><path d="M45.927,25.428c-1.741,0.38 -2.842,2.085 -2.456,3.803c0.386,1.719 2.114,2.805 3.855,2.424c1.742,-0.381 2.843,-2.085 2.457,-3.804c-0.386,-1.718 -2.114,-2.804 -3.856,-2.423Z" style="fill:#2da76c;"/><path d="M44.836,20.539l-6.112,13.264c-0.403,1.182 3.143,2.325 3.35,1.745l2.065,-4.272c-2.731,-3.16 -0.177,-6.748 2.863,-6.533l1.274,-2.566c0.158,-0.368 -0.089,-0.662 -0.582,-0.808l-2.176,-0.931c-0.399,-0.133 -0.519,-0.06 -0.682,0.101Z" style="fill:#26488e;stroke:#26488e;stroke-width:0.73px;"/><path d="M47.931,21.206l-2.021,-0.959l0.842,-1.822l1.971,0.941l-0.792,1.84Z" style="fill:#26488e;stroke:#26488e;stroke-width:0.73px;"/><path d="M46.55,17.621l3.052,1.421" style="fill:none;fill-rule:nonzero;stroke:#26488e;stroke-width:2.6px;stroke-linecap:round;stroke-linejoin:round;"/><path d="M38.714,35.334l2.43,1.069" style="fill:none;fill-rule:nonzero;stroke:#26488e;stroke-width:3.46px;stroke-linecap:round;stroke-linejoin:round;"/><path d="M39.747,36.205l-0.507,1.17" style="fill:none;fill-rule:nonzero;stroke:#26488e;stroke-width:11.27px;"/><path d="M41.83,40.606l-6.563,-3.041l-0.723,1.751l6.476,2.877l0.226,-0.346l0.401,0.26l-0.751,1.603l-0.664,-0.286l0.106,-0.299l-4.563,-2.077c-0.516,-0.112 -1.031,0.774 -0.518,1.084l4.304,1.989c0.412,0.067 0.518,-0.051 0.596,-0.187l0.525,0.303c-0.467,0.948 -0.185,1.38 0.691,1.842c0.828,0.438 2.285,0.356 3.479,0.294c-0.233,-0.592 -0.349,-1.212 -0.205,-1.896l-1.406,0.055l1.193,-2.739l-2.034,-1.08l-0.299,0.553l-0.506,-0.16l0.235,-0.5Z" style="fill:#26488e;"/><path d="M46.528,43.343c-1.038,0.227 -1.694,1.242 -1.464,2.266c0.23,1.024 1.259,1.671 2.297,1.444c1.038,-0.227 1.694,-1.243 1.464,-2.266c-0.23,-1.024 -1.26,-1.671 -2.297,-1.444Z" style="fill:#26488e;"/><path d="M47.899,32.179c1.671,-0.826 2.571,-2.124 2.684,-3.903c4.973,5.752 4.327,12.543 -1.183,16.656c-0.254,-0.619 -0.604,-1.22 -1.589,-1.813c1.525,-1.281 3.227,-3.024 2.447,-7.043c-0.271,-1.605 -1.333,-2.832 -2.359,-3.897Z" style="fill:#26488e;"/><path d="M45.196,46.959c1.505,0.827 2.929,1.077 4,-1.159c1.731,1.714 2.738,3.837 2.803,6.49l-16.659,-0c-0.27,-1.021 -0.264,-2.012 0.219,-2.975c1.276,0.152 3.827,0.454 5.003,0.454c1.176,0 2.892,-0.355 3.593,-1.048c0.703,-0.692 0.928,-1.405 1.041,-1.762Z" style="fill:#26488e;"/><path d="M46.176,32.265l0.018,-0.023l0.017,0.023c3.724,4.808 2.925,8.428 0.077,8.428l-0.188,-0c-2.848,-0 -3.648,-3.62 0.076,-8.428Zm-0,0.001l-0,-0.001l-0,0.001Zm0.035,-0l0,-0.001l0,0.001Z" style="fill:#b6242e;"/><path d="M45.687,33.529c-0.687,0.863 -1.567,2.918 -1.314,2.921c0.871,0.011 0.71,-0.632 1.416,-2.029c0.181,-0.704 0.084,-0.882 -0.102,-0.892Z" style="fill:#fff;"/><path d="M71.626,52.474l-0.795,0.909l1.517,5.417l1.39,1.461l1.337,-0.054l1.427,-3.545l-0.633,-3.208l-1.679,-0.997l-0.903,-0.179l-1.661,0.196Z" style="fill:#b6242e;"/></g></g></svg>